<svg width="1714" height="466" viewBox="0 0 1714 466" fill="none" xmlns="http://www.w3.org/2000/svg">
<g clip-path="url(#clip0_143_275)">
<rect width="1714" height="466" fill="#006B95"/>
<g opacity="0.61">
<g opacity="0.6">
<path d="M1478.12 364.124C1478.38 363.982 1478.6 363.858 1478.79 363.757L1483.22 364.469L1487.02 369.886L1484.11 376.199L1475.03 378.895C1474.99 378.87 1474.95 378.845 1474.92 378.819C1474.48 378.52 1473.88 378.117 1473.26 377.701C1472.21 376.991 1470.99 376.184 1470.4 375.836C1470.39 375.813 1470.38 375.785 1470.38 375.75C1470.34 375.568 1470.32 375.302 1470.32 374.961C1470.33 374.283 1470.41 373.391 1470.53 372.467C1470.65 371.544 1470.81 370.603 1470.97 369.832C1471.13 369.045 1471.28 368.493 1471.36 368.296C1471.36 368.297 1471.36 368.298 1471.36 368.299C1471.37 368.299 1471.42 368.225 1471.63 368.052C1471.85 367.871 1472.17 367.646 1472.56 367.386C1473.33 366.868 1474.34 366.26 1475.36 365.673C1476.37 365.088 1477.37 364.533 1478.12 364.124ZM1470.42 375.908C1470.42 375.907 1470.42 375.906 1470.42 375.904C1470.43 375.92 1470.43 375.924 1470.42 375.908Z" fill="#34505B" stroke="#34505B" stroke-width="2.32617"/>
<path d="M1503.65 366.316L1504.69 360.254L1511.3 356.182L1520.44 355.887L1519.78 362.046L1513.87 367.392L1508.03 368.583L1503.65 366.316Z" fill="#34505B" stroke="#34505B" stroke-width="2.32617"/>
<path d="M1547.61 368.246C1547.58 368.353 1547.54 368.446 1547.52 368.518L1541.49 373.295L1535.3 375.683L1530.49 372.985L1531.18 369.809L1533.8 365.236L1543.32 363.542L1543.55 363.661L1545.21 364.521C1546.32 365.099 1547.52 365.718 1548.04 365.988C1548.05 366.039 1548.06 366.116 1548.06 366.222C1548.07 366.498 1548.01 366.858 1547.91 367.237C1547.82 367.609 1547.71 367.973 1547.61 368.246ZM1548.02 365.934C1548.02 365.928 1548.02 365.924 1548.02 365.924C1548.02 365.924 1548.02 365.927 1548.02 365.934Z" fill="#34505B" stroke="#34505B" stroke-width="2.32617"/>
<path d="M1545.02 383.815C1545.1 383.758 1545.16 383.709 1545.21 383.671L1554.32 380.029L1558.36 382.32L1557.95 386.967L1548.73 392.351L1540.49 394.107C1540.46 394.071 1540.44 394.033 1540.41 393.995C1540.11 393.545 1539.71 392.938 1539.31 392.31C1538.92 391.679 1538.52 391.034 1538.23 390.505C1538.09 390.24 1537.98 390.013 1537.9 389.836C1537.86 389.753 1537.84 389.694 1537.83 389.655C1537.86 389.614 1537.91 389.56 1537.98 389.491C1538.17 389.293 1538.45 389.029 1538.81 388.713C1539.53 388.084 1540.49 387.305 1541.46 386.538C1542.44 385.773 1543.41 385.03 1544.14 384.478C1544.5 384.202 1544.81 383.974 1545.02 383.815ZM1537.78 389.731C1537.78 389.731 1537.78 389.728 1537.78 389.721C1537.78 389.727 1537.78 389.731 1537.78 389.731Z" fill="#34505B" stroke="#34505B" stroke-width="2.32617"/>
<path d="M1478.64 391.39L1478.86 391.305L1479.02 391.179L1487.11 384.743L1487.34 384.67C1487.68 384.566 1488.16 384.416 1488.74 384.236C1489.9 383.875 1491.46 383.391 1493.04 382.896C1494.62 382.401 1496.23 381.895 1497.5 381.492C1498.41 381.205 1499.19 380.953 1499.66 380.795L1508.14 380.522C1508.14 380.523 1508.14 380.525 1508.15 380.526C1508.36 380.608 1508.67 380.733 1509.06 380.9C1509.85 381.235 1510.96 381.741 1512.23 382.415C1514.78 383.765 1517.95 385.781 1520.49 388.448C1522.85 390.922 1522.14 394.326 1520.66 397.27C1519.93 398.719 1519.05 400.005 1518.34 400.929C1517.99 401.391 1517.68 401.76 1517.46 402.013C1517.35 402.139 1517.27 402.236 1517.21 402.3C1517.18 402.332 1517.16 402.356 1517.14 402.371L1517.13 402.388L1517.13 402.392L1517.13 402.392L1517.13 402.392L1517.13 402.392L1516.46 403.108L1517.49 403.408C1517.53 403.446 1517.57 403.514 1517.62 403.622C1517.74 403.875 1517.82 404.246 1517.87 404.724C1517.96 405.672 1517.88 406.904 1517.73 408.145C1517.58 409.38 1517.36 410.598 1517.18 411.509C1517.09 411.965 1517.01 412.342 1516.95 412.605C1516.94 412.641 1516.93 412.674 1516.93 412.706L1516.82 412.76C1516.49 412.932 1516.02 413.177 1515.46 413.474C1514.33 414.066 1512.82 414.862 1511.3 415.675C1509.77 416.487 1508.23 417.32 1507.04 417.985C1506.44 418.317 1505.92 418.612 1505.53 418.845C1505.34 418.961 1505.17 419.068 1505.03 419.161L1505.03 419.162C1505.02 419.168 1505.01 419.174 1505 419.18C1505 419.18 1505 419.18 1505 419.18C1504.67 419.202 1504.17 419.212 1503.53 419.208C1502.25 419.201 1500.56 419.142 1498.86 419.066C1497.17 418.989 1495.49 418.896 1494.23 418.822C1493.61 418.786 1493.09 418.754 1492.72 418.731L1484.07 410.085L1483.62 409.633L1482.72 409.769L1471.52 411.465L1462.6 408.226L1461.25 401.748L1467.67 395.591L1478.64 391.39ZM1517.46 403.378C1517.46 403.378 1517.46 403.378 1517.47 403.38C1517.46 403.379 1517.46 403.378 1517.46 403.378Z" fill="#34505B" stroke="#34505B" stroke-width="2.32617"/>
<path d="M1517.91 402.54C1518.38 402.118 1518.83 401.69 1519.24 401.244C1526.85 393.133 1523.75 384.049 1512.31 380.955C1500.88 377.861 1485.45 381.928 1477.85 390.039C1477.43 390.485 1477.06 390.935 1476.7 391.386C1470.96 391.947 1465.18 394.32 1461.77 397.962C1456.7 403.369 1458.77 409.425 1466.39 411.487C1471.52 412.877 1484.15 410.157 1484.78 410.327C1485.41 410.497 1488.86 417.568 1493.99 418.957C1501.61 421.02 1511.9 418.309 1516.97 412.902C1520.38 409.26 1520.49 405.352 1517.91 402.54Z" fill="#34505B" stroke="#34505B" stroke-width="4.65234" stroke-miterlimit="10" stroke-linecap="round" stroke-linejoin="round"/>
<path d="M1507.21 369.69C1511.9 370.515 1518.17 367.745 1521.2 363.502C1524.24 359.26 1522.9 355.152 1518.21 354.327C1513.52 353.502 1507.26 356.273 1504.22 360.515C1501.18 364.758 1502.52 368.866 1507.21 369.69Z" fill="#34505B" stroke="#34505B" stroke-width="4.65234" stroke-miterlimit="10" stroke-linecap="round" stroke-linejoin="round"/>
<path d="M1475.38 379.356C1480.43 379.484 1485.74 376.026 1487.24 371.633C1488.73 367.239 1485.85 363.575 1480.79 363.447C1475.73 363.32 1470.42 366.778 1468.93 371.171C1467.43 375.564 1470.32 379.229 1475.38 379.356Z" fill="#34505B" stroke="#34505B" stroke-width="4.65234" stroke-miterlimit="10" stroke-linecap="round" stroke-linejoin="round"/>
<path d="M1554.13 391.266C1559.69 387.931 1561.52 383.568 1558.22 381.522C1554.91 379.475 1547.73 380.52 1542.16 383.856C1536.6 387.191 1534.77 391.554 1538.07 393.6C1541.38 395.647 1548.57 394.602 1554.13 391.266Z" fill="#34505B" stroke="#34505B" stroke-width="4.65234" stroke-miterlimit="10" stroke-linecap="round" stroke-linejoin="round"/>
<path d="M1531.24 376.209C1535.33 377.683 1542.23 375.73 1546.64 371.847C1551.05 367.965 1551.31 363.622 1547.21 362.149C1543.12 360.675 1536.22 362.628 1531.81 366.51C1527.4 370.393 1527.14 374.735 1531.24 376.209Z" fill="#34505B" stroke="#34505B" stroke-width="4.65234" stroke-miterlimit="10" stroke-linecap="round" stroke-linejoin="round"/>
</g>
<g opacity="0.6">
<path d="M1465.3 266.609C1465.55 266.498 1465.78 266.4 1465.97 266.319L1470.31 267.526L1473.7 273.422L1470.41 279.452L1461.31 281.179C1461.27 281.145 1461.23 281.109 1461.18 281.072C1460.77 280.723 1460.21 280.252 1459.63 279.765C1458.63 278.926 1457.48 277.975 1456.93 277.567C1456.92 277.541 1456.92 277.509 1456.91 277.469C1456.89 277.282 1456.89 277.011 1456.92 276.667C1456.97 275.984 1457.11 275.094 1457.29 274.175C1457.47 273.259 1457.69 272.327 1457.9 271.566C1458.11 270.798 1458.29 270.262 1458.39 270.069C1458.39 270.069 1458.39 270.07 1458.39 270.07C1458.39 270.071 1458.45 270.004 1458.66 269.859C1458.89 269.703 1459.21 269.511 1459.61 269.292C1460.41 268.855 1461.44 268.352 1462.48 267.87C1463.51 267.391 1464.53 266.94 1465.3 266.609ZM1456.95 277.635C1456.95 277.635 1456.95 277.634 1456.95 277.633C1456.96 277.65 1456.95 277.653 1456.95 277.635Z" fill="#34505B" stroke="#34505B" stroke-width="2.32617"/>
<path d="M1491.1 270.168L1492.54 264.12L1499.35 260.72L1508.49 261.423L1507.41 267.641L1501.2 272.41L1495.33 272.982L1491.1 270.168Z" fill="#34505B" stroke="#34505B" stroke-width="2.32617"/>
<path d="M1533.24 275.905C1533.2 276.006 1533.16 276.093 1533.13 276.162L1526.88 280.322L1520.62 282.058L1516.02 278.78L1516.92 275.64L1519.8 271.326L1529.29 270.652L1529.53 270.81L1531.11 271.859C1532.18 272.572 1533.33 273.336 1533.82 273.66C1533.83 273.715 1533.83 273.797 1533.83 273.911C1533.81 274.189 1533.73 274.547 1533.61 274.919C1533.49 275.285 1533.36 275.64 1533.24 275.905ZM1533.81 273.61C1533.8 273.604 1533.8 273.601 1533.8 273.601C1533.8 273.601 1533.8 273.604 1533.81 273.61Z" fill="#34505B" stroke="#34505B" stroke-width="2.32617"/>
<path d="M1527.31 290.869C1527.39 290.821 1527.45 290.78 1527.51 290.748L1536.85 288.024L1540.77 290.851L1540.04 295.563L1530.5 300.043L1522.11 300.935C1522.08 300.883 1522.05 300.829 1522.02 300.772C1521.76 300.279 1521.4 299.614 1521.04 298.927C1520.69 298.239 1520.34 297.535 1520.09 296.961C1519.97 296.674 1519.87 296.428 1519.8 296.238C1519.77 296.148 1519.76 296.084 1519.75 296.042C1519.78 296.005 1519.83 295.956 1519.9 295.895C1520.1 295.714 1520.4 295.476 1520.78 295.193C1521.54 294.63 1522.55 293.939 1523.58 293.262C1524.6 292.587 1525.62 291.934 1526.39 291.45C1526.77 291.208 1527.09 291.008 1527.31 290.869ZM1519.69 296.114C1519.69 296.114 1519.69 296.111 1519.69 296.105C1519.69 296.11 1519.69 296.114 1519.69 296.114Z" fill="#34505B" stroke="#34505B" stroke-width="2.32617"/>
<path d="M1460.51 293.554L1460.75 293.489L1460.93 293.372L1469.29 287.784L1469.51 287.74C1469.84 287.672 1470.33 287.573 1470.91 287.455C1472.07 287.218 1473.63 286.899 1475.22 286.572C1476.81 286.246 1478.42 285.912 1479.7 285.644C1480.59 285.455 1481.38 285.286 1481.85 285.178L1490.19 285.82C1490.2 285.824 1490.21 285.828 1490.22 285.832C1490.42 285.937 1490.72 286.097 1491.09 286.308C1491.84 286.731 1492.9 287.36 1494.1 288.177C1496.51 289.812 1499.5 292.185 1501.81 295.146C1503.96 297.898 1503.03 301.245 1501.38 304.038C1500.57 305.413 1499.62 306.608 1498.86 307.46C1498.48 307.885 1498.16 308.223 1497.93 308.453C1497.81 308.568 1497.72 308.656 1497.66 308.714C1497.63 308.743 1497.61 308.764 1497.59 308.778L1497.58 308.793L1497.57 308.796L1497.57 308.796L1497.57 308.797L1497.57 308.797L1496.86 309.445L1497.84 309.851C1497.87 309.881 1497.91 309.953 1497.97 310.097C1498.06 310.366 1498.12 310.749 1498.13 311.233C1498.16 312.197 1498 313.426 1497.76 314.658C1497.53 315.883 1497.24 317.084 1497 317.98C1496.88 318.428 1496.77 318.799 1496.7 319.057C1496.69 319.087 1496.68 319.115 1496.67 319.142L1496.59 319.175C1496.26 319.312 1495.78 319.508 1495.2 319.745C1494.06 320.219 1492.52 320.856 1490.97 321.509C1489.42 322.16 1487.85 322.831 1486.63 323.371C1486.02 323.64 1485.49 323.882 1485.09 324.075C1484.9 324.171 1484.72 324.261 1484.57 324.34L1484.57 324.342C1484.57 324.343 1484.57 324.344 1484.57 324.345C1484.24 324.331 1483.76 324.287 1483.13 324.214C1481.88 324.069 1480.23 323.827 1478.56 323.567C1476.91 323.307 1475.26 323.032 1474.03 322.821C1473.41 322.715 1472.9 322.626 1472.54 322.564C1472.54 322.563 1472.54 322.563 1472.53 322.562L1464.62 312.917L1464.22 312.437L1463.36 312.476L1452.24 312.97L1443.68 308.73L1442.79 302.065L1449.49 296.587L1460.51 293.554Z" fill="#34505B" stroke="#34505B" stroke-width="2.32617"/>
<path d="M1497.99 308.197C1498.52 307.801 1499.04 307.398 1499.53 306.974C1508.43 299.275 1507.06 289.869 1496.47 285.964C1485.89 282.06 1470.09 285.137 1461.19 292.836C1460.7 293.259 1460.26 293.69 1459.83 294.122C1454.13 294.303 1448.06 296.316 1444.06 299.773C1438.13 304.906 1439.04 311.177 1446.1 313.779C1450.85 315.532 1463.67 313.63 1464.25 313.845C1464.83 314.06 1466.9 321.452 1471.66 323.205C1478.71 325.808 1489.25 323.757 1495.18 318.624C1499.17 315.167 1499.99 311.218 1497.99 308.197Z" fill="#34505B" stroke="#34505B" stroke-width="4.65234" stroke-miterlimit="10" stroke-linecap="round" stroke-linejoin="round"/>
<path d="M1493.56 274.215C1497.98 275.367 1504.6 272.984 1508.34 268.894C1512.07 264.803 1511.52 260.554 1507.09 259.402C1502.67 258.25 1496.05 260.633 1492.31 264.723C1488.58 268.814 1489.13 273.064 1493.56 274.215Z" fill="#34505B" stroke="#34505B" stroke-width="4.65234" stroke-miterlimit="10" stroke-linecap="round" stroke-linejoin="round"/>
<path d="M1460.72 281.852C1465.63 282.323 1471.44 279.18 1473.7 274.833C1475.96 270.486 1473.82 266.581 1468.91 266.11C1464 265.64 1458.19 268.783 1455.93 273.13C1453.67 277.477 1455.81 281.382 1460.72 281.852Z" fill="#34505B" stroke="#34505B" stroke-width="4.65234" stroke-miterlimit="10" stroke-linecap="round" stroke-linejoin="round"/>
<path d="M1535.37 299.222C1541.4 296.22 1543.99 291.927 1541.14 289.632C1538.29 287.337 1531.09 287.91 1525.05 290.912C1519.02 293.913 1516.43 298.207 1519.28 300.502C1522.13 302.797 1529.33 302.224 1535.37 299.222Z" fill="#34505B" stroke="#34505B" stroke-width="4.65234" stroke-miterlimit="10" stroke-linecap="round" stroke-linejoin="round"/>
<path d="M1515.79 282.434C1519.52 284.203 1526.6 282.691 1531.61 279.058C1536.63 275.424 1537.67 271.045 1533.95 269.277C1530.22 267.508 1523.14 269.02 1518.12 272.653C1513.11 276.287 1512.07 280.666 1515.79 282.434Z" fill="#34505B" stroke="#34505B" stroke-width="4.65234" stroke-miterlimit="10" stroke-linecap="round" stroke-linejoin="round"/>
</g>
<g opacity="0.6">
<path d="M1628.98 227.971C1629.23 227.802 1629.45 227.654 1629.63 227.533L1634.08 227.74L1638.27 232.599L1635.8 239.107L1626.88 242.746C1626.85 242.732 1626.82 242.717 1626.8 242.702C1626.33 242.458 1625.71 242.129 1625.06 241.79C1624.41 241.451 1623.72 241.1 1623.15 240.813C1622.74 240.605 1622.34 240.412 1622.06 240.285C1622.05 240.266 1622.04 240.243 1622.03 240.216C1621.99 240.043 1621.95 239.785 1621.93 239.45C1621.88 238.787 1621.9 237.906 1621.95 236.987C1622.01 236.071 1622.1 235.132 1622.2 234.359C1622.31 233.562 1622.42 233.001 1622.49 232.804C1622.48 232.816 1622.48 232.816 1622.5 232.802C1622.52 232.774 1622.58 232.691 1622.74 232.536C1622.95 232.333 1623.25 232.077 1623.63 231.78C1624.37 231.186 1625.34 230.479 1626.32 229.792C1627.29 229.107 1628.25 228.454 1628.98 227.971ZM1622.09 240.361C1622.09 240.36 1622.09 240.359 1622.09 240.357C1622.1 240.372 1622.1 240.376 1622.09 240.361Z" fill="#34505B" stroke="#34505B" stroke-width="2.32617"/>
<path d="M1653.97 228.688L1654.56 222.7L1660.87 218.01L1669.86 216.738L1669.65 222.747L1664.13 228.597L1658.42 230.387L1653.97 228.688Z" fill="#34505B" stroke="#34505B" stroke-width="2.32617"/>
<path d="M1699.18 226.736C1699.15 226.847 1699.13 226.942 1699.11 227.016L1693.4 232.354L1687.38 235.364L1682.43 233.284L1682.89 230.117L1685.19 225.35L1694.6 222.65L1694.81 222.73L1696.53 223.387C1697.68 223.823 1698.9 224.289 1699.45 224.5C1699.47 224.547 1699.48 224.616 1699.49 224.711C1699.51 224.979 1699.48 225.337 1699.41 225.717C1699.35 226.091 1699.26 226.46 1699.18 226.736ZM1699.43 224.441C1699.43 224.435 1699.42 224.431 1699.42 224.431C1699.42 224.43 1699.43 224.433 1699.43 224.441Z" fill="#34505B" stroke="#34505B" stroke-width="2.32617"/>
<path d="M1700.1 242.681C1700.17 242.616 1700.24 242.562 1700.28 242.519L1709.02 238.021L1713.1 239.764L1713.03 244.281L1704.28 250.489L1696.31 253.063C1696.29 253.044 1696.28 253.025 1696.26 253.005C1695.93 252.603 1695.49 252.061 1695.05 251.497C1694.61 250.932 1694.18 250.352 1693.86 249.873C1693.7 249.633 1693.57 249.427 1693.48 249.265C1693.44 249.194 1693.42 249.141 1693.4 249.106C1693.43 249.063 1693.48 249.005 1693.54 248.932C1693.71 248.72 1693.97 248.433 1694.3 248.089C1694.97 247.403 1695.87 246.545 1696.78 245.698C1697.68 244.854 1698.59 244.03 1699.28 243.417C1699.62 243.111 1699.9 242.858 1700.1 242.681ZM1693.35 249.187C1693.35 249.187 1693.36 249.184 1693.36 249.177C1693.36 249.184 1693.35 249.187 1693.35 249.187Z" fill="#34505B" stroke="#34505B" stroke-width="2.32617"/>
<path d="M1635.18 255.112L1634.97 255.216L1624.23 260.557L1618.2 267.324L1620.03 273.517L1629.18 275.7L1640.33 272.8L1641.26 272.558L1641.77 272.974L1651.09 280.49C1651.46 280.472 1651.97 280.446 1652.58 280.414C1653.85 280.348 1655.55 280.253 1657.26 280.141C1658.98 280.028 1660.68 279.899 1661.97 279.765C1662.62 279.697 1663.12 279.633 1663.45 279.575C1663.45 279.575 1663.45 279.574 1663.45 279.574C1663.47 279.563 1663.48 279.554 1663.49 279.545L1663.49 279.545C1663.62 279.439 1663.79 279.315 1663.97 279.18C1664.34 278.909 1664.84 278.562 1665.42 278.171C1666.57 277.386 1668.07 276.398 1669.54 275.433C1671.02 274.466 1672.48 273.518 1673.57 272.811C1674.12 272.458 1674.57 272.165 1674.89 271.96L1675.01 271.887C1675.01 271.853 1675.02 271.817 1675.02 271.779C1675.06 271.514 1675.12 271.135 1675.17 270.678C1675.29 269.763 1675.42 268.543 1675.48 267.314C1675.54 266.078 1675.53 264.861 1675.37 263.941C1675.29 263.477 1675.18 263.123 1675.05 262.89C1675 262.801 1674.95 262.745 1674.92 262.712L1673.82 262.526L1674.46 261.739L1674.46 261.738L1674.46 261.738L1674.46 261.738L1674.46 261.734L1674.47 261.716C1674.49 261.699 1674.51 261.673 1674.53 261.638C1674.59 261.569 1674.67 261.464 1674.77 261.328C1674.97 261.056 1675.25 260.659 1675.57 260.166C1676.22 259.179 1677.02 257.818 1677.65 256.315C1678.92 253.254 1679.38 249.841 1676.84 247.684M1635.18 255.112L1676.84 247.684M1635.18 255.112L1635.33 254.975L1643.01 247.756L1643.25 247.655C1643.58 247.516 1644.06 247.316 1644.63 247.074C1645.77 246.592 1647.3 245.944 1648.86 245.283C1650.42 244.623 1652 243.948 1653.25 243.412C1654.14 243.029 1654.92 242.693 1655.37 242.489L1663.87 241.285M1635.18 255.112L1663.87 241.285M1676.84 247.684C1674.1 245.35 1670.76 243.725 1668.1 242.683C1666.78 242.163 1665.63 241.79 1664.81 241.548C1664.41 241.429 1664.09 241.342 1663.87 241.285M1676.84 247.684L1663.87 241.285M1674.88 262.678C1674.88 262.678 1674.88 262.679 1674.89 262.681C1674.88 262.679 1674.88 262.678 1674.88 262.678Z" fill="#34505B" stroke="#34505B" stroke-width="2.32617"/>
<path d="M1675.62 262.636C1676.02 262.194 1676.39 261.744 1676.73 261.28C1682.9 252.847 1678.05 244.21 1665.89 241.99C1653.74 239.769 1638.87 244.805 1632.7 253.238C1632.36 253.702 1632.07 254.167 1631.79 254.631C1626.09 255.577 1620.68 258.291 1617.91 262.078C1613.79 267.7 1617.03 273.458 1625.13 274.938C1630.59 275.935 1642.87 272.407 1643.54 272.529C1644.21 272.651 1649.03 279.303 1654.49 280.3C1662.59 281.78 1672.5 278.423 1676.62 272.801C1679.39 269.014 1678.76 265.198 1675.62 262.636Z" fill="#34505B" stroke="#34505B" stroke-width="4.65234" stroke-miterlimit="10" stroke-linecap="round" stroke-linejoin="round"/>
<path d="M1658.62 231.367C1663.52 231.845 1669.34 228.71 1671.62 224.364C1673.9 220.018 1671.77 216.107 1666.86 215.63C1661.96 215.152 1656.14 218.287 1653.86 222.633C1651.58 226.979 1653.71 230.889 1658.62 231.367Z" fill="#34505B" stroke="#34505B" stroke-width="4.65234" stroke-miterlimit="10" stroke-linecap="round" stroke-linejoin="round"/>
<path d="M1628.18 242.999C1633.32 242.772 1638.05 239.032 1638.74 234.647C1639.42 230.262 1635.81 226.891 1630.67 227.118C1625.52 227.345 1620.8 231.084 1620.11 235.47C1619.42 239.855 1623.04 243.226 1628.18 242.999Z" fill="#34505B" stroke="#34505B" stroke-width="4.65234" stroke-miterlimit="10" stroke-linecap="round" stroke-linejoin="round"/>
<path d="M1710.17 249.131C1715.18 245.494 1716.21 241.115 1712.48 239.35C1708.75 237.585 1701.67 239.103 1696.66 242.741C1691.66 246.378 1690.62 250.757 1694.35 252.522C1698.08 254.287 1705.17 252.769 1710.17 249.131Z" fill="#34505B" stroke="#34505B" stroke-width="4.65234" stroke-miterlimit="10" stroke-linecap="round" stroke-linejoin="round"/>
<path d="M1684.16 236.049C1688.58 237.201 1695.2 234.818 1698.93 230.728C1702.67 226.637 1702.12 222.387 1697.69 221.236C1693.27 220.084 1686.65 222.467 1682.91 226.557C1679.18 230.648 1679.73 234.898 1684.16 236.049Z" fill="#34505B" stroke="#34505B" stroke-width="4.65234" stroke-miterlimit="10" stroke-linecap="round" stroke-linejoin="round"/>
</g>
<g opacity="0.6">
<path d="M1485.73 173.195C1485.86 173.031 1485.99 172.883 1486.1 172.753L1490.54 171.687L1496.65 174.694L1496.83 180.8L1489.75 186.248C1489.7 186.241 1489.65 186.234 1489.6 186.227C1489.05 186.147 1488.3 186.04 1487.53 185.932C1486.19 185.745 1484.66 185.54 1483.95 185.481C1483.93 185.465 1483.91 185.445 1483.89 185.42C1483.78 185.288 1483.64 185.079 1483.48 184.8C1483.17 184.247 1482.83 183.49 1482.52 182.687C1482.21 181.888 1481.92 181.059 1481.71 180.369C1481.51 179.698 1481.39 179.217 1481.37 179.016C1481.38 178.995 1481.41 178.926 1481.48 178.785C1481.6 178.569 1481.78 178.279 1482.02 177.925C1482.51 177.22 1483.17 176.351 1483.85 175.491C1484.53 174.636 1485.21 173.809 1485.73 173.195ZM1484 185.528C1484 185.528 1484 185.527 1484 185.526C1484.02 185.534 1484.02 185.537 1484 185.528Z" fill="#34505B" stroke="#34505B" stroke-width="2.32617"/>
<path d="M1508.69 168.231L1506.93 163.07L1511.01 157.569L1519.14 154.024L1521.3 159.153L1518.36 165.453L1513.72 168.444L1508.69 168.231Z" fill="#34505B" stroke="#34505B" stroke-width="2.32617"/>
<path d="M1553.45 155.968C1553.46 156.046 1553.47 156.115 1553.48 156.174L1550.11 162.196L1545.57 166.316L1539.84 165.917L1539.03 163.111L1539.36 158.573L1547.26 153.775L1547.54 153.786L1549.49 153.867C1550.8 153.921 1552.22 153.98 1552.83 154.005C1552.86 154.04 1552.9 154.095 1552.95 154.176C1553.07 154.393 1553.18 154.703 1553.27 155.042C1553.35 155.376 1553.41 155.713 1553.45 155.968ZM1552.79 153.969C1552.78 153.966 1552.78 153.964 1552.78 153.964C1552.78 153.964 1552.78 153.965 1552.79 153.969Z" fill="#34505B" stroke="#34505B" stroke-width="2.32617"/>
<path d="M1564.75 170.295C1564.78 170.246 1564.81 170.202 1564.83 170.163L1571.24 164.12L1575.81 164.472L1577.44 168.21L1571.67 175.652L1565.2 179.933C1565.17 179.916 1565.14 179.9 1565.11 179.882C1564.64 179.633 1564.01 179.296 1563.38 178.94C1562.74 178.583 1562.1 178.213 1561.61 177.897C1561.37 177.739 1561.16 177.601 1561.02 177.488C1560.98 177.455 1560.95 177.428 1560.92 177.406C1560.93 177.38 1560.94 177.349 1560.95 177.314C1561.03 177.101 1561.16 176.798 1561.34 176.42C1561.71 175.669 1562.23 174.706 1562.76 173.743C1563.3 172.785 1563.84 171.843 1564.25 171.14C1564.46 170.789 1564.63 170.498 1564.75 170.295ZM1560.89 177.532C1560.89 177.533 1560.89 177.528 1560.89 177.519C1560.89 177.527 1560.89 177.532 1560.89 177.532Z" fill="#34505B" stroke="#34505B" stroke-width="2.32617"/>
<path d="M1507.99 196.763L1508.22 196.557L1508.34 196.335L1512.97 188.032L1513.09 187.943C1513.36 187.73 1513.74 187.424 1514.21 187.055C1515.15 186.318 1516.4 185.328 1517.67 184.32C1518.95 183.312 1520.24 182.285 1521.26 181.471C1521.94 180.926 1522.55 180.434 1522.94 180.116L1530.82 176.701C1530.83 176.701 1530.84 176.7 1530.84 176.7C1531.08 176.688 1531.44 176.672 1531.89 176.662C1532.8 176.64 1534.1 176.637 1535.62 176.712C1538.68 176.862 1542.65 177.325 1546.33 178.566C1549.73 179.715 1550.64 182.777 1550.61 185.732C1550.6 187.19 1550.36 188.576 1550.12 189.598C1550.01 190.109 1549.89 190.525 1549.8 190.812C1549.76 190.956 1549.72 191.066 1549.7 191.139C1549.69 191.176 1549.68 191.203 1549.67 191.22L1549.67 191.239L1549.66 191.242L1549.66 191.242L1549.66 191.242L1549.66 191.243L1549.33 192.187L1550.48 192.039C1550.51 192.051 1550.59 192.084 1550.72 192.173C1550.94 192.337 1551.2 192.609 1551.46 192.984C1551.99 193.728 1552.49 194.77 1552.93 195.849C1553.37 196.922 1553.73 198.008 1553.98 198.828C1554.11 199.237 1554.21 199.579 1554.28 199.818C1554.28 199.822 1554.28 199.826 1554.28 199.83C1554.05 200.095 1553.73 200.466 1553.34 200.91C1552.55 201.826 1551.48 203.056 1550.42 204.305C1549.35 205.553 1548.27 206.828 1547.44 207.832C1547.03 208.332 1546.67 208.777 1546.41 209.122C1546.3 209.261 1546.2 209.393 1546.12 209.511C1545.83 209.646 1545.4 209.825 1544.85 210.04C1543.63 210.517 1542 211.106 1540.35 211.687C1538.71 212.265 1537.06 212.825 1535.83 213.242C1535.21 213.45 1534.7 213.622 1534.34 213.741C1534.34 213.742 1534.34 213.743 1534.34 213.743L1522.03 209.877L1521.42 209.684L1520.61 210.148L1510.78 215.773L1500.75 216.477L1496.45 211.677L1499.61 204.316L1507.99 196.763Z" fill="#34505B" stroke="#34505B" stroke-width="2.32617"/>
<path d="M1551.45 192.876C1551.57 192.403 1551.67 191.928 1551.73 191.448C1552.81 182.723 1542.8 176.265 1529.38 177.024C1515.97 177.784 1504.22 185.472 1503.14 194.197C1503.08 194.677 1503.07 195.147 1503.08 195.612C1497.97 197.703 1494.23 201.269 1493.75 205.187C1493.03 211.003 1499.7 215.308 1508.65 214.802C1514.67 214.461 1524.75 208.662 1525.49 208.62C1526.23 208.578 1535.02 213.31 1541.04 212.97C1549.98 212.464 1557.82 207.338 1558.53 201.521C1559.01 197.604 1556.1 194.414 1551.45 192.876Z" fill="#34505B" stroke="#34505B" stroke-width="4.65234" stroke-miterlimit="10" stroke-linecap="round" stroke-linejoin="round"/>
<path d="M1515.77 169.374C1520.93 168.704 1524.83 164.678 1524.49 160.382C1524.15 156.086 1519.68 153.148 1514.52 153.819C1509.36 154.489 1505.45 158.515 1505.8 162.811C1506.14 167.107 1510.61 170.045 1515.77 169.374Z" fill="#34505B" stroke="#34505B" stroke-width="4.65234" stroke-miterlimit="10" stroke-linecap="round" stroke-linejoin="round"/>
<path d="M1492.5 186.267C1497.48 184.929 1499.93 180.619 1497.99 176.642C1496.04 172.664 1490.42 170.525 1485.45 171.864C1480.47 173.203 1478.02 177.512 1479.97 181.49C1481.91 185.467 1487.53 187.606 1492.5 186.267Z" fill="#34505B" stroke="#34505B" stroke-width="4.65234" stroke-miterlimit="10" stroke-linecap="round" stroke-linejoin="round"/>
<path d="M1577.68 173.437C1580.47 169.155 1578.87 165.106 1574.1 164.394C1569.34 163.682 1563.21 166.576 1560.42 170.859C1557.62 175.141 1559.23 179.19 1563.99 179.902C1568.76 180.614 1574.89 177.72 1577.68 173.437Z" fill="#34505B" stroke="#34505B" stroke-width="4.65234" stroke-miterlimit="10" stroke-linecap="round" stroke-linejoin="round"/>
<path d="M1543.96 167.794C1549.05 167.818 1554.2 164.272 1555.46 159.875C1556.72 155.479 1553.61 151.895 1548.53 151.872C1543.44 151.848 1538.29 155.394 1537.03 159.79C1535.77 164.187 1538.88 167.771 1543.96 167.794Z" fill="#34505B" stroke="#34505B" stroke-width="4.65234" stroke-miterlimit="10" stroke-linecap="round" stroke-linejoin="round"/>
</g>
<g opacity="0.6">
<path d="M1594.23 93.4696C1594.25 93.392 1594.26 93.3182 1594.27 93.2487L1598.92 91.6779L1608.82 93.3259L1613.68 97.9458L1610.01 103.017C1609.85 103.019 1609.66 103.022 1609.45 103.026C1608.74 103.037 1607.79 103.052 1606.79 103.071C1604.92 103.106 1602.85 103.154 1602.14 103.204C1602.08 103.19 1601.99 103.163 1601.86 103.114C1601.6 103.017 1601.26 102.863 1600.85 102.659C1600.04 102.254 1599.03 101.689 1598.02 101.087C1597.01 100.486 1596.01 99.8579 1595.21 99.3318C1594.5 98.8672 1594.01 98.5218 1593.8 98.3479C1593.79 98.3399 1593.79 98.3311 1593.79 98.3215C1593.76 98.182 1593.74 97.9652 1593.74 97.6663C1593.74 97.0731 1593.8 96.3151 1593.9 95.5404C1594 94.7739 1594.13 94.0273 1594.23 93.4696ZM1602.17 103.212C1602.17 103.212 1602.17 103.211 1602.17 103.211C1602.17 103.211 1602.17 103.211 1602.17 103.212ZM1593.82 98.4193C1593.82 98.4195 1593.81 98.4169 1593.81 98.4111C1593.81 98.4163 1593.82 98.4192 1593.82 98.4193Z" fill="#34505B" stroke="#34505B" stroke-width="2.32617"/>
<path d="M1618.11 83.0528L1611.82 79.0916L1612.14 74.5398L1619.29 70.2843L1626.34 74.3471L1627.87 79.4571L1624.87 82.4722L1618.11 83.0528Z" fill="#34505B" stroke="#34505B" stroke-width="2.32617"/>
<path d="M1656.63 65.7709C1656.67 65.8015 1656.7 65.8305 1656.74 65.8576L1657.6 70.8295L1655.68 74.6374L1648.02 75.1409L1644.7 72.9165L1641.74 69.5791L1646.91 64.8183L1647.53 64.7651L1649.88 64.5631L1654.11 64.1998C1654.09 64.2012 1654.09 64.2015 1654.11 64.2066C1654.16 64.2183 1654.31 64.2552 1654.58 64.388C1654.91 64.5515 1655.29 64.79 1655.67 65.0507C1656.04 65.3082 1656.38 65.5711 1656.63 65.7709Z" fill="#34505B" stroke="#34505B" stroke-width="2.32617"/>
<path d="M1672.93 76.0665C1672.89 75.771 1672.86 75.5227 1672.84 75.342L1675.56 69.5411L1682.04 69.1357L1687.09 71.9824L1686.3 78.4822L1681.87 83.0783C1681.69 83.0452 1681.46 83.0053 1681.21 82.96C1680.44 82.8211 1679.4 82.6314 1678.33 82.4277C1677.27 82.2236 1676.18 82.007 1675.31 81.8144C1674.88 81.7179 1674.51 81.6296 1674.23 81.5537C1674.12 81.5247 1674.04 81.5006 1673.98 81.4816C1673.91 81.3257 1673.83 81.09 1673.75 80.7746C1673.57 80.1267 1673.41 79.2772 1673.27 78.4112C1673.13 77.5516 1673.01 76.7025 1672.93 76.0665Z" fill="#34505B" stroke="#34505B" stroke-width="2.32617"/>
<path d="M1627.63 108.71L1627.45 109.07L1623.9 116.021L1626.02 121.96L1635 125.276L1646.51 123.28L1653.47 117.389L1653.85 117.06L1654.34 117.1L1671.94 118.55C1672.01 118.521 1672.08 118.487 1672.17 118.45C1672.49 118.305 1672.94 118.099 1673.49 117.849C1674.59 117.349 1676.04 116.679 1677.49 115.993C1678.94 115.305 1680.36 114.61 1681.4 114.059C1681.81 113.839 1682.14 113.652 1682.38 113.505C1682.39 113.461 1682.39 113.416 1682.4 113.373C1682.43 113.041 1682.49 112.621 1682.56 112.162C1682.72 111.236 1682.95 110.064 1683.18 108.921C1683.42 107.775 1683.67 106.646 1683.86 105.805C1683.91 105.564 1683.96 105.347 1684 105.159C1683.75 104.99 1683.43 104.777 1683.05 104.533C1682.1 103.913 1680.81 103.094 1679.45 102.294C1678.07 101.492 1676.65 100.723 1675.43 100.194C1674.82 99.9287 1674.29 99.7354 1673.85 99.6249C1673.64 99.5699 1673.47 99.54 1673.33 99.5285C1673.27 99.5228 1673.22 99.5222 1673.18 99.5237C1673.15 99.5252 1673.13 99.5284 1673.13 99.5284L1672.25 99.7268L1671.89 98.9351L1671.89 98.9346L1671.89 98.934L1671.89 98.9337L1671.89 98.9332L1671.88 98.9213C1671.88 98.9088 1671.87 98.8879 1671.85 98.8592C1671.82 98.8018 1671.78 98.7131 1671.72 98.5973C1671.59 98.3656 1671.4 98.0261 1671.13 97.6121C1670.6 96.7829 1669.78 95.6618 1668.64 94.5103C1666.37 92.2087 1662.84 89.8088 1657.76 89.3287M1627.63 108.71L1657.76 89.3287M1627.63 108.71L1627.56 108.326L1626.32 101.298C1626.45 101.098 1626.64 100.834 1626.85 100.524C1627.34 99.8083 1628 98.8485 1628.67 97.8711C1629.33 96.8942 1630.01 95.8973 1630.54 95.1086C1630.8 94.7148 1631.03 94.3691 1631.2 94.1023C1631.26 94.0132 1631.32 93.92 1631.37 93.8303L1637.88 89.9689M1627.63 108.71L1637.88 89.9689M1657.76 89.3287C1652.44 88.8264 1647.41 88.9954 1643.71 89.2917C1641.86 89.4397 1640.34 89.619 1639.29 89.7609C1638.77 89.8318 1638.36 89.8933 1638.08 89.9368C1638 89.949 1637.94 89.9597 1637.88 89.9689M1657.76 89.3287L1637.88 89.9689" fill="#34505B" stroke="#34505B" stroke-width="2.32617"/>
<path d="M1672.9 98.2243C1672.78 97.7759 1672.64 97.3288 1672.45 96.8858C1669.05 88.8347 1655.69 84.9252 1642.62 88.1536C1629.54 91.3821 1621.7 100.526 1625.11 108.577C1625.3 109.02 1625.52 109.445 1625.77 109.862C1621.72 112.711 1619.8 116.629 1621.33 120.244C1623.59 125.611 1632.5 128.217 1641.22 126.065C1647.09 124.616 1654.22 117.487 1654.94 117.309C1655.66 117.131 1666.91 119.721 1672.78 118.271C1681.5 116.119 1686.72 110.023 1684.45 104.656C1682.93 101.041 1678.37 98.724 1672.9 98.2243Z" fill="#34505B" stroke="#34505B" stroke-width="4.65234" stroke-miterlimit="10" stroke-linecap="round" stroke-linejoin="round"/>
<path d="M1625.03 83.8565C1629.87 82.274 1631.72 77.9122 1629.17 74.1142C1626.61 70.3162 1620.63 68.5202 1615.79 70.1027C1610.96 71.6852 1609.11 76.047 1611.66 79.845C1614.21 83.643 1620.2 85.439 1625.03 83.8565Z" fill="#34505B" stroke="#34505B" stroke-width="4.65234" stroke-miterlimit="10" stroke-linecap="round" stroke-linejoin="round"/>
<path d="M1610.37 103.464C1614.67 101.316 1614.92 96.974 1610.92 93.7665C1606.92 90.5591 1600.19 89.7005 1595.89 91.8487C1591.58 93.9969 1591.33 98.3385 1595.33 101.546C1599.33 104.753 1606.06 105.612 1610.37 103.464Z" fill="#34505B" stroke="#34505B" stroke-width="4.65234" stroke-miterlimit="10" stroke-linecap="round" stroke-linejoin="round"/>
<path d="M1689.25 75.7643C1689.85 71.3829 1686.16 68.0452 1681.01 68.3093C1675.87 68.5734 1671.2 72.3394 1670.6 76.7208C1670 81.1022 1673.69 84.4399 1678.84 84.1758C1683.99 83.9117 1688.65 80.1457 1689.25 75.7643Z" fill="#34505B" stroke="#34505B" stroke-width="4.65234" stroke-miterlimit="10" stroke-linecap="round" stroke-linejoin="round"/>
<path d="M1652.51 77.0855C1657.63 76.1412 1660.98 71.9763 1659.98 67.7828C1658.99 63.5894 1654.03 60.9554 1648.91 61.8997C1643.79 62.8439 1640.45 67.0088 1641.45 71.2023C1642.44 75.3957 1647.4 78.0297 1652.51 77.0855Z" fill="#34505B" stroke="#34505B" stroke-width="4.65234" stroke-miterlimit="10" stroke-linecap="round" stroke-linejoin="round"/>
</g>
<g opacity="0.6">
<path d="M1419.6 84.8738C1419.49 84.719 1419.38 84.5796 1419.3 84.4598L1421.87 82.1892L1431.69 81.6999L1440.49 85.1403L1441.76 90.8745C1441.69 90.8937 1441.61 90.9141 1441.52 90.9355C1440.91 91.0892 1440.09 91.2975 1439.24 91.5159C1437.74 91.8998 1436.05 92.3405 1435.35 92.5572C1435.31 92.5537 1435.25 92.548 1435.18 92.5391C1434.88 92.5041 1434.46 92.4346 1433.92 92.3317C1432.86 92.1272 1431.49 91.8156 1430.08 91.4711C1428.68 91.1277 1427.25 90.7571 1426.1 90.4388C1424.96 90.1262 1424.17 89.8893 1423.87 89.7807C1423.85 89.7693 1423.78 89.72 1423.63 89.6004C1423.43 89.4336 1423.19 89.2011 1422.91 88.9109C1422.35 88.3329 1421.73 87.5972 1421.14 86.8605C1420.55 86.1274 1420 85.4096 1419.6 84.8738ZM1435.45 92.5623C1435.45 92.5623 1435.45 92.5623 1435.45 92.5623C1435.47 92.5612 1435.47 92.5628 1435.45 92.5623Z" fill="#34505B" stroke="#34505B" stroke-width="2.32617"/>
<path d="M1436.18 71.5746L1427.26 69.2421L1423.21 64.5789L1425.65 59.4831L1434.96 61.6669L1441.17 66.3595L1441.16 69.8199L1436.18 71.5746Z" fill="#34505B" stroke="#34505B" stroke-width="2.32617"/>
<path d="M1448.49 52.8811L1448.89 47.2203L1449.21 47.1078L1451.08 46.4489C1452.38 45.9933 1453.77 45.504 1454.33 45.3071C1454.42 45.3138 1454.55 45.3315 1454.74 45.3673C1455.16 45.4473 1455.7 45.5866 1456.26 45.7496C1456.81 45.9099 1457.34 46.0813 1457.73 46.2137C1457.86 46.2565 1457.97 46.295 1458.06 46.3273L1463.49 50.9978L1465.21 55.0489L1459.34 56.937L1454.61 55.6087L1448.49 52.8811ZM1454.27 45.3037C1454.26 45.3041 1454.25 45.3041 1454.25 45.304C1454.25 45.3038 1454.26 45.3036 1454.27 45.3037Z" fill="#34505B" stroke="#34505B" stroke-width="2.32617"/>
<path d="M1483.25 49.1972C1483.21 49.1564 1483.17 49.12 1483.13 49.0886L1480.49 43.2064L1485.29 41.6731L1492.11 43.2285L1497.29 49.6358L1497.38 54.5615C1497.29 54.5652 1497.19 54.5691 1497.09 54.5731C1496.31 54.6036 1495.27 54.6416 1494.19 54.6723C1493.11 54.7031 1492.01 54.7261 1491.12 54.7272C1490.67 54.7277 1490.29 54.7227 1490 54.7115C1489.89 54.7072 1489.81 54.7025 1489.74 54.6984C1489.71 54.6771 1489.67 54.6507 1489.62 54.6186C1489.39 54.4668 1489.08 54.244 1488.72 53.9599C1488 53.3954 1487.12 52.6531 1486.26 51.9045C1485.41 51.1588 1484.59 50.419 1483.98 49.8647C1483.68 49.5878 1483.42 49.3578 1483.25 49.1972ZM1489.87 54.7708C1489.87 54.7711 1489.87 54.7688 1489.86 54.7634C1489.87 54.7678 1489.87 54.7706 1489.87 54.7708Z" fill="#34505B" stroke="#34505B" stroke-width="2.32617"/>
<path d="M1465.75 88.0959L1465.67 87.9042L1465.47 87.7392L1457.99 81.3318L1457.96 81.2301C1457.9 81.0109 1457.82 80.6971 1457.73 80.3189C1457.53 79.5625 1457.27 78.5478 1457 77.5154C1456.73 76.4833 1456.46 75.4317 1456.23 74.602C1456.08 74.0366 1455.94 73.5303 1455.84 73.2138L1458.15 68.3976C1458.17 68.3902 1458.19 68.3823 1458.2 68.3742C1458.4 68.2802 1458.7 68.1427 1459.1 67.9728C1459.89 67.6329 1461.05 67.1644 1462.53 66.6564C1465.5 65.639 1469.73 64.4712 1474.79 63.8561C1479.51 63.282 1484.66 64.7153 1488.78 66.4088C1490.82 67.2462 1492.55 68.1241 1493.77 68.7932C1494.38 69.1271 1494.86 69.4075 1495.19 69.6026C1495.35 69.7001 1495.47 69.7761 1495.55 69.8268C1495.57 69.8335 1495.58 69.8398 1495.58 69.8456C1495.61 69.8617 1495.63 69.8743 1495.64 69.8832L1495.66 69.8961L1495.67 69.8984L1495.67 69.8986L1495.67 69.8987L1495.67 69.8989L1496.62 70.5108L1497.38 70.048C1497.42 70.0438 1497.54 70.0237 1497.85 70.0323C1498.3 70.0446 1498.91 70.1101 1499.68 70.2288C1501.21 70.4649 1503.12 70.8791 1505.03 71.3369C1506.93 71.7924 1508.78 72.2813 1510.16 72.6571C1510.85 72.8448 1511.42 73.0038 1511.82 73.1157C1511.83 73.1206 1511.85 73.1253 1511.87 73.13C1512.03 73.3647 1512.27 73.698 1512.55 74.0983C1513.12 74.907 1513.89 75.9902 1514.68 77.0867C1515.47 78.1818 1516.28 79.2962 1516.95 80.1651C1517.28 80.5982 1517.58 80.9798 1517.83 81.2706C1517.93 81.3945 1518.03 81.5106 1518.13 81.6113C1518.05 81.7997 1517.91 82.0656 1517.71 82.3988C1517.29 83.11 1516.65 84.0338 1515.98 84.959C1515.31 85.881 1514.61 86.7918 1514.09 87.4729C1513.83 87.8133 1513.61 88.0958 1513.45 88.293C1513.44 88.3048 1513.43 88.3162 1513.42 88.3274L1496.88 90.5564L1496.14 90.6561L1496.07 91.1622L1495.12 97.9312L1487.01 101.978L1476.32 100.777L1468.81 95.4249L1465.75 88.0959Z" fill="#34505B" stroke="#34505B" stroke-width="2.32617"/>
<path d="M1499.19 68.6453C1498.74 68.3084 1498.28 67.9778 1497.77 67.6635C1488.56 61.9512 1472.7 62.3478 1462.35 68.5491C1452 74.7504 1451.08 84.408 1460.29 90.1203C1460.8 90.4345 1461.33 90.7227 1461.88 91.0001C1460.03 94.4436 1461.03 98.1935 1465.17 100.758C1471.31 104.566 1481.88 104.302 1488.78 100.168C1493.43 97.3834 1495.14 89.5758 1495.71 89.2347C1496.28 88.8933 1509.12 87.981 1513.77 85.1965C1520.67 81.0623 1521.28 74.6239 1515.14 70.8157C1511 68.2511 1504.87 67.5773 1499.19 68.6453Z" fill="#34505B" stroke="#34505B" stroke-width="4.65234" stroke-miterlimit="10" stroke-linecap="round" stroke-linejoin="round"/>
<path d="M1442.09 69.7736C1445.63 67.1601 1444.23 63.0648 1438.96 60.6265C1433.7 58.1881 1426.55 58.3302 1423.01 60.9437C1419.47 63.5572 1420.87 67.6525 1426.13 70.0909C1431.4 72.5292 1438.54 72.3871 1442.09 69.7736Z" fill="#34505B" stroke="#34505B" stroke-width="4.65234" stroke-miterlimit="10" stroke-linecap="round" stroke-linejoin="round"/>
<path d="M1442.2 89.9002C1444.81 86.9639 1441.87 83.319 1435.63 81.7591C1429.39 80.1993 1422.21 81.3151 1419.6 84.2514C1416.99 87.1877 1419.93 90.8325 1426.17 92.3924C1432.41 93.9523 1439.59 92.8365 1442.2 89.9002Z" fill="#34505B" stroke="#34505B" stroke-width="4.65234" stroke-miterlimit="10" stroke-linecap="round" stroke-linejoin="round"/>
<path d="M1498.61 45.7159C1495.98 41.9427 1489.95 40.1909 1485.13 41.8032C1480.32 43.4154 1478.54 47.7812 1481.17 51.5544C1483.8 55.3276 1489.83 57.0794 1494.65 55.4671C1499.46 53.8549 1501.23 49.4891 1498.61 45.7159Z" fill="#34505B" stroke="#34505B" stroke-width="4.65234" stroke-miterlimit="10" stroke-linecap="round" stroke-linejoin="round"/>
<path d="M1463.86 56.751C1468.14 54.5868 1468.34 50.2495 1464.3 47.0634C1460.26 43.8774 1453.51 43.0491 1449.22 45.2133C1444.94 47.3776 1444.74 51.7149 1448.78 54.9009C1452.82 58.087 1459.57 58.9153 1463.86 56.751Z" fill="#34505B" stroke="#34505B" stroke-width="4.65234" stroke-miterlimit="10" stroke-linecap="round" stroke-linejoin="round"/>
</g>
</g>
<g opacity="0.38">
<path d="M49.5247 221.681C62.5968 220.429 69.1611 213.219 64.1872 205.577C59.2133 197.936 44.5849 192.755 31.5128 194.007C22.7519 194.846 16.9145 198.361 15.5141 202.889L12.3473 203.192C-7.26028 205.07 -17.1073 215.885 -9.64649 227.347L30.8804 289.613C24.3448 290.239 21.0111 293.856 24.0809 297.605C38.3202 314.991 62.3647 330.343 92.1995 340.908C114.077 348.655 137.904 353.415 161.375 354.898L172.259 371.62C178.142 380.658 193.027 387.4 208.673 388.927C227.042 416.328 279.685 434.828 326.755 430.321C374.141 425.783 397.937 399.647 379.907 371.945L361.895 344.272C352.569 329.943 364.877 316.425 389.387 314.078C413.897 311.73 441.326 321.443 450.652 335.772L461.552 352.519C449.617 356.689 444.742 365.323 450.624 374.36C458.085 385.823 480.027 393.593 499.636 391.715C519.244 389.838 529.09 379.023 521.629 367.56C515.748 358.523 500.864 351.781 485.221 350.253L474.32 333.505C460.021 311.535 417.962 296.642 380.381 300.241C342.8 303.84 323.927 324.568 338.227 346.538L356.238 374.212C369.295 394.272 352.063 413.198 317.749 416.484C283.748 419.74 245.735 406.418 232.342 386.658C244.273 382.488 249.145 373.855 243.264 364.82L232.381 348.098C251.281 342.558 266.48 334.06 276.297 323.278C289.685 308.574 292.096 290.688 283.359 272.774C281.477 268.912 274.101 266.321 267.565 266.947L227.038 204.681C219.577 193.218 197.635 185.448 178.027 187.326L174.86 187.629C168.076 183.885 158.616 181.835 149.855 182.674C136.783 183.926 130.219 191.136 135.193 198.777C140.166 206.419 154.795 211.6 167.867 210.348C176.628 209.509 182.465 205.994 183.866 201.466L187.033 201.163C193.569 200.537 200.883 203.127 203.37 206.948L243.897 269.214L246.376 268.976C239.84 269.602 236.652 273.214 238.212 277.085C242.613 288.009 240.681 298.795 232.508 307.772C222.595 318.658 204.315 325.991 181.687 328.158C159.06 330.325 133.938 327.148 111.85 319.327C93.6356 312.877 78.7145 303.705 69.2129 293.269C65.8462 289.571 58.6063 286.958 52.0704 287.584L54.5488 287.347L14.022 225.081C11.5351 221.26 14.8174 217.655 21.3532 217.029L24.5201 216.726C31.3042 220.47 40.7638 222.52 49.5247 221.681Z" fill="#34505B"/>
</g>
</g>
<defs>
<clipPath id="clip0_143_275">
<rect width="1714" height="466" fill="white"/>
</clipPath>
</defs>
</svg>
