<svg width="39" height="40" viewBox="0 0 39 40" fill="none" xmlns="http://www.w3.org/2000/svg">
<g clip-path="url(#clip0_365_492)">
<path d="M39.0001 20.7254C39.0001 19.3801 38.8912 18.3984 38.6555 17.3804H23.3267V23.4523H32.3243C32.143 24.9613 31.1634 27.2337 28.9865 28.7607L28.956 28.964L33.8027 32.7268L34.1384 32.7604C37.2223 29.9061 39.0001 25.7066 39.0001 20.7254Z" fill="#4285F4"/>
<path d="M23.3268 36.7233C27.7349 36.7233 31.4355 35.2689 34.1386 32.7602L28.9866 28.7606C27.6079 29.7241 25.7576 30.3967 23.3268 30.3967C19.0093 30.3967 15.345 27.5426 14.0387 23.5977L13.8473 23.6139L8.80761 27.5226L8.7417 27.7062C11.4265 33.051 16.9412 36.7233 23.3268 36.7233Z" fill="#34A853"/>
<path d="M14.0385 23.5977C13.6938 22.5797 13.4943 21.4888 13.4943 20.3617C13.4943 19.2345 13.6938 18.1438 14.0203 17.1257L14.0112 16.9089L8.90841 12.9375L8.74146 13.0171C7.63493 15.235 7 17.7257 7 20.3617C7 22.9978 7.63493 25.4883 8.74146 27.7063L14.0385 23.5977Z" fill="#FBBC05"/>
<path d="M23.3268 10.3265C26.3925 10.3265 28.4605 11.6536 29.6397 12.7626L34.2474 8.25404C31.4175 5.618 27.7349 4 23.3268 4C16.9412 4 11.4265 7.67226 8.7417 13.017L14.0206 17.1257C15.345 13.1807 19.0093 10.3265 23.3268 10.3265Z" fill="#EB4335"/>
</g>
<defs>
<clipPath id="clip0_365_492">
<rect width="39" height="40" fill="white"/>
</clipPath>
</defs>
</svg>
