<svg width="32" height="33" viewBox="0 0 32 33" fill="none" xmlns="http://www.w3.org/2000/svg">
<path d="M31.9996 16.7249C31.9996 15.3796 31.8907 14.3979 31.655 13.3799H16.3262V19.4518H25.3238C25.1425 20.9608 24.1629 23.2332 21.986 24.7602L21.9555 24.9635L26.8022 28.7263L27.138 28.7599C30.2218 25.9056 31.9996 21.7061 31.9996 16.7249Z" fill="#4285F4"/>
<path d="M16.3263 32.7233C20.7344 32.7233 24.435 31.2689 27.1381 28.7602L21.9861 24.7606C20.6075 25.7241 18.7571 26.3967 16.3263 26.3967C12.0089 26.3967 8.34448 23.5426 7.03823 19.5977L6.84677 19.6139L1.80712 23.5226L1.74121 23.7062C4.42599 29.051 9.94074 32.7233 16.3263 32.7233Z" fill="#34A853"/>
<path d="M7.03848 19.5977C6.69382 18.5797 6.49435 17.4888 6.49435 16.3617C6.49435 15.2345 6.69382 14.1438 7.02035 13.1257L7.01122 12.9089L1.90841 8.9375L1.74146 9.01708C0.634928 11.235 0 13.7257 0 16.3617C0 18.9978 0.634928 21.4883 1.74146 23.7063L7.03848 19.5977Z" fill="#FBBC05"/>
<path d="M16.3263 6.32648C19.392 6.32648 21.46 7.65358 22.6392 8.76262L27.2469 4.25404C24.417 1.618 20.7344 0 16.3263 0C9.94074 0 4.42599 3.67226 1.74121 9.01704L7.0201 13.1257C8.34448 9.18072 12.0089 6.32648 16.3263 6.32648Z" fill="#EB4335"/>
</svg>
