<svg width="607" height="856" viewBox="0 0 " fill="none" xmlns="http://www.w3.org/2000/svg">
<g opacity="0.61">
<g opacity="0.6">
<path d="M303.724 669.547C304.126 669.255 304.47 669.009 304.731 668.823L311.173 671.179L316.946 682.928L313.72 695.156L301.592 699.095C301.459 698.949 301.304 698.78 301.133 698.593C300.525 697.929 299.703 697.034 298.846 696.109C297.265 694.402 295.486 692.503 294.777 691.846C294.752 691.77 294.721 691.649 294.69 691.474C294.62 691.082 294.566 690.532 294.532 689.852C294.464 688.499 294.476 686.741 294.539 684.931C294.602 683.125 294.714 681.289 294.84 679.786C294.97 678.246 295.108 677.148 295.207 676.756C295.207 676.757 295.208 676.756 295.209 676.753C295.222 676.727 295.302 676.565 295.578 676.24C295.857 675.912 296.252 675.514 296.74 675.064C297.713 674.166 298.982 673.132 300.256 672.143C301.526 671.157 302.783 670.229 303.724 669.547ZM294.805 691.918C294.805 691.918 294.803 691.913 294.798 691.903C294.803 691.912 294.805 691.917 294.805 691.918Z" fill="#34505B" stroke="#34505B" stroke-width="2.32617"/>
<path d="M337.557 678.193L338.301 666.027L346.743 658.956L359.548 659.984L359.324 672.706L352 682.409L344.05 683.848L337.557 678.193Z" fill="#34505B" stroke="#34505B" stroke-width="2.32617"/>
<path d="M396.289 689.261C396.245 689.504 396.205 689.707 396.176 689.855L388.686 698.35L380.444 702.184L373.277 695.525L373.878 689.097L376.894 680.341L389.685 678.544L390.248 679.034L392.52 681.013C394.167 682.447 395.942 683.992 396.549 684.52C396.557 684.539 396.567 684.568 396.58 684.61C396.621 684.754 396.656 684.969 396.673 685.258C396.707 685.834 396.663 686.559 396.58 687.297C396.499 688.028 396.384 688.734 396.289 689.261Z" fill="#34505B" stroke="#34505B" stroke-width="2.32617"/>
<path d="M393.115 718.795C393.223 718.68 393.313 718.586 393.38 718.515L405.344 712.678L411.45 718.407L411.401 727.888L399.687 737.086L388.449 739.275C388.349 739.065 388.232 738.819 388.104 738.546C387.66 737.603 387.068 736.332 386.476 735.017C385.883 733.699 385.294 732.348 384.854 731.241C384.633 730.686 384.454 730.205 384.331 729.827C384.27 729.637 384.226 729.485 384.198 729.367C384.19 729.334 384.184 729.307 384.18 729.285C384.18 729.284 384.18 729.284 384.18 729.283C384.222 729.191 384.296 729.054 384.413 728.868C384.646 728.498 384.995 728.016 385.438 727.45C386.32 726.323 387.51 724.939 388.714 723.586C389.915 722.235 391.119 720.929 392.023 719.959C392.475 719.474 392.851 719.074 393.115 718.795ZM384.153 729.353C384.152 729.353 384.153 729.351 384.154 729.347C384.153 729.351 384.153 729.353 384.153 729.353Z" fill="#34505B" stroke="#34505B" stroke-width="2.32617"/>
<path d="M306.836 723.067L306.599 723.177L292.583 729.642L284.696 740.846L287.231 754.248L299.739 762.448L314.493 760.971L315.266 760.894L315.666 761.498L328.105 780.267C328.186 780.285 328.277 780.306 328.376 780.328C328.86 780.435 329.553 780.587 330.386 780.767C332.052 781.126 334.277 781.595 336.515 782.032C338.759 782.471 340.995 782.874 342.692 783.106C343.547 783.223 344.226 783.291 344.687 783.305C344.75 783.307 344.805 783.307 344.852 783.307C344.894 783.265 344.933 783.229 344.964 783.201C345.13 783.045 345.341 782.866 345.581 782.671C346.062 782.28 346.708 781.787 347.455 781.233C348.95 780.124 350.889 778.742 352.803 777.397C354.72 776.05 356.62 774.735 358.04 773.757C358.75 773.267 359.34 772.862 359.753 772.579C359.832 772.525 359.904 772.476 359.969 772.431C359.978 772.339 359.989 772.234 360 772.118C360.049 771.607 360.116 770.874 360.187 769.989C360.33 768.218 360.489 765.844 360.556 763.423C360.622 760.995 360.595 758.555 360.375 756.64C360.264 755.678 360.11 754.894 359.914 754.324C359.737 753.808 359.581 753.634 359.549 753.598C359.541 753.589 359.54 753.588 359.547 753.592L358.544 753.039L306.836 723.067ZM306.836 723.067L307.002 722.878L316.991 711.5L317.354 711.374C317.785 711.225 318.402 711.011 319.146 710.753C320.632 710.237 322.626 709.544 324.653 708.835C326.68 708.126 328.742 707.4 330.365 706.819C331.59 706.381 332.633 706.002 333.195 705.778L344.594 706.693M306.836 723.067L344.594 706.693M359.121 752.108L359.121 752.108L359.121 752.108ZM359.121 752.108L359.122 752.107L359.126 752.1L359.145 752.069C359.152 752.057 359.161 752.042 359.172 752.024C359.186 752 359.204 751.971 359.224 751.936C359.294 751.818 359.397 751.64 359.527 751.408C359.788 750.943 360.154 750.262 360.571 749.406C361.408 747.693 362.445 745.293 363.253 742.539C364.884 736.985 365.514 730.23 362.025 724.741C358.364 718.98 353.933 714.417 350.411 711.291C348.651 709.729 347.123 708.531 346.039 707.725C345.497 707.323 345.066 707.018 344.773 706.816C344.706 706.77 344.646 706.729 344.594 706.693M359.121 752.108L344.594 706.693M345.085 783.296C345.084 783.296 345.084 783.296 345.084 783.296L345.085 783.296Z" fill="#34505B" stroke="#34505B" stroke-width="2.32617"/>
<path d="M359.628 751.946C360.202 751.187 360.758 750.411 361.271 749.596C370.585 734.776 365.776 716.369 350.53 708.482C335.284 700.596 315.375 706.217 306.062 721.036C305.549 721.852 305.097 722.681 304.669 723.516C297.187 723.729 289.799 727.511 285.618 734.165C279.409 744.045 282.615 756.316 292.779 761.574C299.624 765.115 315.964 761.715 316.803 762.149C317.642 762.583 322.74 777.073 329.585 780.614C339.749 785.871 353.021 782.124 359.231 772.245C363.412 765.59 363.237 757.896 359.628 751.946Z" fill="#34505B" stroke="#34505B" stroke-width="4.65234" stroke-miterlimit="10" stroke-linecap="round" stroke-linejoin="round"/>
<path d="M342.923 685.462C349.142 687.82 357.133 683.329 360.772 675.431C364.411 667.533 362.319 659.219 356.101 656.86C349.882 654.502 341.891 658.993 338.252 666.891C334.614 674.789 336.705 683.103 342.923 685.462Z" fill="#34505B" stroke="#34505B" stroke-width="4.65234" stroke-miterlimit="10" stroke-linecap="round" stroke-linejoin="round"/>
<path d="M301.945 699.572C308.587 700.612 315.271 694.616 316.874 686.18C318.478 677.745 314.393 670.064 307.752 669.025C301.11 667.986 294.426 673.982 292.823 682.417C291.219 690.852 295.303 698.533 301.945 699.572Z" fill="#34505B" stroke="#34505B" stroke-width="4.65234" stroke-miterlimit="10" stroke-linecap="round" stroke-linejoin="round"/>
<path d="M406.196 735.334C413.221 729.62 415.268 721.296 410.768 716.744C406.269 712.191 396.927 713.133 389.902 718.848C382.877 724.563 380.83 732.886 385.33 737.439C389.829 741.991 399.171 741.049 406.196 735.334Z" fill="#34505B" stroke="#34505B" stroke-width="4.65234" stroke-miterlimit="10" stroke-linecap="round" stroke-linejoin="round"/>
<path d="M374.946 702.061C380.436 705.607 389.323 702.829 394.795 695.855C400.266 688.881 400.25 680.353 394.76 676.808C389.269 673.262 380.382 676.04 374.911 683.014C369.439 689.988 369.455 698.516 374.946 702.061Z" fill="#34505B" stroke="#34505B" stroke-width="4.65234" stroke-miterlimit="10" stroke-linecap="round" stroke-linejoin="round"/>
</g>
<g opacity="0.6">
<path d="M280.025 475.223C280.456 474.977 280.825 474.77 281.105 474.613L287.253 477.656L291.711 489.965L287.17 501.772L274.683 504.368C274.566 504.209 274.431 504.024 274.281 503.819C273.749 503.094 273.029 502.114 272.278 501.101C270.893 499.232 269.331 497.151 268.698 496.42C268.681 496.342 268.664 496.218 268.652 496.041C268.624 495.643 268.631 495.091 268.671 494.411C268.751 493.058 268.956 491.312 269.215 489.519C269.475 487.731 269.786 485.917 270.076 484.437C270.372 482.92 270.63 481.843 270.771 481.465C270.771 481.466 270.772 481.465 270.774 481.461C270.789 481.437 270.886 481.285 271.196 480.992C271.51 480.695 271.945 480.342 272.479 479.948C273.545 479.162 274.919 478.272 276.294 477.427C277.664 476.584 279.015 475.799 280.025 475.223ZM268.718 496.494C268.718 496.495 268.716 496.49 268.713 496.479C268.717 496.489 268.718 496.494 268.718 496.494Z" fill="#34505B" stroke="#34505B" stroke-width="2.32617"/>
<path d="M312.863 487.094L314.933 475.064L324.109 468.944L336.745 471.362L335.132 484.004L326.782 492.865L318.71 493.431L312.863 487.094Z" fill="#34505B" stroke="#34505B" stroke-width="2.32617"/>
<path d="M369.844 504.157C369.773 504.395 369.712 504.592 369.666 504.736L361.291 512.369L352.675 515.286L346.273 507.884L347.572 501.556L351.527 493.175L364.445 492.78L364.951 493.328L366.996 495.544C368.477 497.149 370.074 498.879 370.62 499.471C370.625 499.49 370.633 499.52 370.64 499.563C370.666 499.711 370.677 499.929 370.662 500.218C370.633 500.795 370.51 501.511 370.348 502.236C370.187 502.954 369.996 503.644 369.844 504.157Z" fill="#34505B" stroke="#34505B" stroke-width="2.32617"/>
<path d="M363.004 533.004C363.125 532.901 363.225 532.817 363.3 532.753L375.86 528.241L381.319 534.617L380.233 544.06L367.556 551.949L356.117 552.905C356.04 552.684 355.951 552.426 355.852 552.139C355.513 551.151 355.063 549.82 354.617 548.445C354.17 547.068 353.731 545.657 353.413 544.506C353.253 543.929 353.128 543.43 353.047 543.04C353.006 542.845 352.979 542.687 352.964 542.568C352.96 542.533 352.957 542.505 352.955 542.482C352.955 542.482 352.955 542.481 352.956 542.48C353.007 542.393 353.096 542.264 353.233 542.092C353.506 541.748 353.907 541.306 354.41 540.791C355.412 539.763 356.748 538.514 358.096 537.297C359.44 536.083 360.782 534.912 361.789 534.044C362.292 533.61 362.711 533.253 363.004 533.004ZM352.921 542.547C352.921 542.547 352.921 542.545 352.923 542.542C352.922 542.545 352.921 542.547 352.921 542.547Z" fill="#34505B" stroke="#34505B" stroke-width="2.32617"/>
<path d="M276.59 528.514L276.342 528.597L261.708 533.498L252.649 543.775L253.708 557.369L265.243 566.878L280.066 567.015L280.844 567.022L281.176 567.666L291.49 587.671C291.569 587.698 291.657 587.728 291.753 587.76C292.222 587.919 292.894 588.146 293.702 588.415C295.319 588.953 297.479 589.661 299.656 590.339C301.838 591.019 304.016 591.663 305.677 592.078C306.514 592.288 307.181 592.429 307.638 592.493C307.7 592.501 307.754 592.508 307.801 592.513C307.848 592.476 307.89 592.444 307.924 592.419C308.106 592.283 308.336 592.128 308.595 591.96C309.116 591.624 309.812 591.204 310.614 590.735C312.221 589.795 314.298 588.633 316.347 587.504C318.399 586.374 320.43 585.274 321.948 584.456C322.707 584.047 323.338 583.708 323.779 583.472C323.863 583.427 323.94 583.386 324.01 583.349C324.029 583.258 324.051 583.155 324.075 583.04C324.179 582.538 324.326 581.817 324.493 580.945C324.828 579.2 325.245 576.858 325.575 574.46C325.906 572.054 326.145 569.627 326.135 567.699C326.129 566.732 326.061 565.935 325.929 565.349C325.81 564.816 325.674 564.626 325.646 564.587C325.639 564.578 325.638 564.577 325.645 564.581L324.707 563.922L276.59 528.514ZM276.59 528.514L276.775 528.345L287.943 518.123L288.317 518.038C288.762 517.936 289.398 517.791 290.165 517.615C291.699 517.264 293.756 516.792 295.848 516.308C297.939 515.824 300.067 515.327 301.744 514.926C303.009 514.624 304.086 514.36 304.669 514.199L315.897 516.348M276.59 528.514L315.897 516.348M325.383 563.059L325.383 563.059L325.383 563.059ZM325.383 563.059L325.383 563.058L325.388 563.052L325.411 563.023C325.431 562.996 325.462 562.955 325.504 562.9C325.586 562.79 325.708 562.624 325.863 562.408C326.172 561.974 326.61 561.337 327.118 560.532C328.136 558.921 329.429 556.648 330.532 553.999C332.758 548.657 334.121 542.013 331.252 536.179C328.242 530.056 324.336 525.039 321.176 521.549C319.598 519.806 318.21 518.449 317.221 517.531C316.726 517.072 316.331 516.722 316.062 516.49C316 516.436 315.945 516.389 315.897 516.348M325.383 563.059L315.897 516.348M308.034 592.527C308.033 592.527 308.033 592.527 308.033 592.527L308.034 592.527Z" fill="#34505B" stroke="#34505B" stroke-width="2.32617"/>
<path d="M325.829 562.701C326.491 562.003 327.138 561.288 327.746 560.528C338.791 546.722 336.231 527.948 322.028 518.595C307.826 509.243 287.358 512.853 276.313 526.659C275.705 527.418 275.156 528.198 274.63 528.985C267.167 528.454 259.367 531.48 254.408 537.679C247.045 546.883 248.751 559.399 258.22 565.634C264.597 569.834 281.249 568.076 282.03 568.591C282.812 569.106 286.131 584.014 292.508 588.214C301.977 594.449 315.622 592.042 322.985 582.838C327.944 576.639 328.699 568.974 325.829 562.701Z" fill="#34505B" stroke="#34505B" stroke-width="4.65234" stroke-miterlimit="10" stroke-linecap="round" stroke-linejoin="round"/>
<path d="M317.244 494.958C323.141 497.919 331.625 494.249 336.195 486.76C340.765 479.27 339.689 470.798 333.793 467.837C327.896 464.875 319.411 468.545 314.841 476.035C310.272 483.524 311.347 491.996 317.244 494.958Z" fill="#34505B" stroke="#34505B" stroke-width="4.65234" stroke-miterlimit="10" stroke-linecap="round" stroke-linejoin="round"/>
<path d="M274.81 504.915C281.286 506.607 288.653 501.311 291.265 493.086C293.876 484.86 290.743 476.82 284.267 475.127C277.79 473.435 270.423 478.731 267.812 486.957C265.2 495.182 268.333 503.222 274.81 504.915Z" fill="#34505B" stroke="#34505B" stroke-width="4.65234" stroke-miterlimit="10" stroke-linecap="round" stroke-linejoin="round"/>
<path d="M374.121 550.813C381.793 545.83 384.831 537.76 380.908 532.788C376.985 527.816 367.585 527.825 359.913 532.808C352.241 537.791 349.202 545.861 353.126 550.833C357.049 555.805 366.449 555.796 374.121 550.813Z" fill="#34505B" stroke="#34505B" stroke-width="4.65234" stroke-miterlimit="10" stroke-linecap="round" stroke-linejoin="round"/>
<path d="M347.072 514.637C352.102 518.707 361.27 516.827 367.55 510.439C373.83 504.05 374.843 495.572 369.813 491.502C364.783 487.433 355.615 489.312 349.335 495.701C343.055 502.089 342.042 510.567 347.072 514.637Z" fill="#34505B" stroke="#34505B" stroke-width="4.65234" stroke-miterlimit="10" stroke-linecap="round" stroke-linejoin="round"/>
</g>
<g opacity="0.6">
<path d="M489.48 424.327C489.847 423.993 490.16 423.71 490.399 423.496L497.064 425.116L504.122 436.143L502.294 448.65L490.691 453.917C490.542 453.787 490.37 453.636 490.178 453.47C489.5 452.878 488.582 452.081 487.627 451.258C485.864 449.738 483.883 448.051 483.105 447.477C483.071 447.405 483.027 447.288 482.976 447.117C482.862 446.735 482.747 446.196 482.636 445.524C482.416 444.187 482.231 442.439 482.089 440.634C481.948 438.834 481.853 436.997 481.809 435.49C481.764 433.946 481.778 432.839 481.833 432.439C481.833 432.44 481.833 432.439 481.834 432.435C481.844 432.407 481.906 432.238 482.143 431.886C482.383 431.528 482.73 431.089 483.164 430.587C484.03 429.587 485.173 428.418 486.328 427.293C487.478 426.171 488.623 425.11 489.48 424.327ZM483.141 447.545C483.141 447.545 483.138 447.541 483.132 447.531C483.138 447.54 483.141 447.545 483.141 447.545Z" fill="#34505B" stroke="#34505B" stroke-width="2.32617"/>
<path d="M523.916 429.533L523.286 417.38L530.865 409.423L543.684 409.014L544.892 421.662L538.718 432.104L530.994 434.419L523.916 429.533Z" fill="#34505B" stroke="#34505B" stroke-width="2.32617"/>
<path d="M583.715 434.299C583.699 434.545 583.682 434.751 583.67 434.901L577.189 444.172L569.437 448.9L561.57 443.088L561.443 436.638L563.452 427.607L575.95 424.394L576.565 424.818L579.044 426.529C580.841 427.769 582.778 429.106 583.44 429.563C583.449 429.58 583.463 429.608 583.48 429.648C583.538 429.787 583.597 429.996 583.646 430.281C583.744 430.849 583.782 431.574 583.783 432.317C583.785 433.051 583.75 433.765 583.715 434.299Z" fill="#34505B" stroke="#34505B" stroke-width="2.32617"/>
<path d="M584.361 464.158C584.456 464.032 584.534 463.928 584.593 463.851L595.792 456.732L602.487 461.729L603.502 471.132L592.928 481.554L582.037 484.977C581.915 484.779 581.772 484.549 581.614 484.293C581.068 483.408 580.339 482.214 579.605 480.976C578.869 479.736 578.133 478.462 577.572 477.413C577.291 476.888 577.06 476.431 576.895 476.07C576.813 475.889 576.753 475.743 576.712 475.63C576.7 475.598 576.691 475.572 576.684 475.55C576.684 475.55 576.685 475.55 576.685 475.55C576.715 475.454 576.773 475.31 576.868 475.113C577.057 474.72 577.35 474.204 577.725 473.593C578.472 472.377 579.496 470.873 580.537 469.397C581.576 467.925 582.623 466.495 583.41 465.433C583.803 464.902 584.132 464.463 584.361 464.158ZM576.665 475.622C576.665 475.622 576.665 475.62 576.666 475.616C576.666 475.62 576.665 475.622 576.665 475.622Z" fill="#34505B" stroke="#34505B" stroke-width="2.32617"/>
<path d="M499.298 477.404L499.074 477.54L485.873 485.531L479.297 497.547L483.327 510.584L496.682 517.335L511.179 514.218L511.938 514.055L512.404 514.61L526.88 531.874C526.963 531.883 527.056 531.893 527.158 531.904C527.651 531.956 528.356 532.03 529.204 532.115C530.901 532.286 533.165 532.503 535.438 532.688C537.718 532.873 539.986 533.023 541.698 533.065C542.561 533.086 543.244 533.078 543.704 533.039C543.766 533.034 543.82 533.029 543.867 533.023C543.905 532.977 543.939 532.937 543.966 532.905C544.114 532.732 544.304 532.53 544.52 532.31C544.954 531.868 545.541 531.305 546.22 530.671C547.581 529.402 549.352 527.812 551.104 526.261C552.857 524.708 554.597 523.189 555.898 522.058C556.548 521.492 557.09 521.024 557.468 520.696C557.54 520.634 557.606 520.577 557.666 520.526C557.664 520.433 557.663 520.328 557.661 520.211C557.652 519.698 557.636 518.962 557.607 518.074C557.55 516.298 557.44 513.921 557.234 511.508C557.027 509.087 556.725 506.666 556.29 504.787C556.072 503.843 555.83 503.081 555.571 502.537C555.337 502.042 555.162 501.887 555.126 501.855C555.117 501.847 555.116 501.846 555.123 501.849L554.064 501.413L499.298 477.404ZM499.298 477.404L499.441 477.198M499.298 477.404L499.441 477.198M554.533 500.422L554.533 500.423L554.533 500.422ZM554.533 500.422L554.534 500.421L554.537 500.414L554.553 500.381C554.567 500.35 554.588 500.303 554.616 500.241C554.672 500.115 554.755 499.927 554.858 499.681C555.064 499.19 555.352 498.473 555.67 497.576C556.309 495.78 557.069 493.278 557.562 490.451C558.557 484.749 558.422 477.965 554.336 472.9C550.049 467.584 545.13 463.544 541.277 460.831C539.353 459.476 537.699 458.455 536.531 457.776C535.947 457.436 535.485 457.182 535.171 457.014C535.098 456.975 535.034 456.941 534.978 456.911L523.546 457.276C523.012 457.561 522.019 458.054 520.851 458.627C519.303 459.385 517.336 460.337 515.401 461.268C513.467 462.2 511.563 463.112 510.144 463.791C509.434 464.13 508.845 464.411 508.433 464.608L508.087 464.773M554.533 500.422L508.087 464.773M499.441 477.198L508.087 464.773M499.441 477.198L508.087 464.773M544.098 532.986C544.097 532.986 544.097 532.986 544.097 532.987L544.098 532.986Z" fill="#34505B" stroke="#34505B" stroke-width="2.32617"/>
<path d="M555.094 500.456C555.57 499.644 556.027 498.816 556.435 497.953C563.847 482.275 556.78 464.477 540.651 458.201C524.522 451.925 505.439 459.547 498.027 475.225C497.62 476.088 497.273 476.958 496.952 477.832C489.544 478.809 482.674 483.323 479.346 490.362C474.405 500.815 479.116 512.679 489.868 516.864C497.11 519.682 512.923 514.631 513.811 514.977C514.698 515.322 521.565 529.198 528.807 532.016C539.559 536.2 552.281 531.118 557.223 520.667C560.55 513.627 559.42 505.999 555.094 500.456Z" fill="#34505B" stroke="#34505B" stroke-width="4.65234" stroke-miterlimit="10" stroke-linecap="round" stroke-linejoin="round"/>
<path d="M530.231 436.106C536.703 437.813 544.085 432.533 546.719 424.313C549.353 416.093 546.241 408.046 539.769 406.339C533.297 404.632 525.916 409.912 523.282 418.132C520.648 426.352 523.759 434.399 530.231 436.106Z" fill="#34505B" stroke="#34505B" stroke-width="4.65234" stroke-miterlimit="10" stroke-linecap="round" stroke-linejoin="round"/>
<path d="M491.269 454.319C497.997 454.672 503.893 448.031 504.438 439.485C504.982 430.94 499.969 423.726 493.241 423.373C486.513 423.02 480.617 429.661 480.072 438.207C479.527 446.753 484.54 453.966 491.269 454.319Z" fill="#34505B" stroke="#34505B" stroke-width="4.65234" stroke-miterlimit="10" stroke-linecap="round" stroke-linejoin="round"/>
<path d="M599.3 479.186C605.57 472.789 606.569 464.309 601.532 460.246C596.495 456.183 587.33 458.075 581.06 464.472C574.791 470.869 573.792 479.349 578.828 483.412C583.865 487.475 593.031 485.583 599.3 479.186Z" fill="#34505B" stroke="#34505B" stroke-width="4.65234" stroke-miterlimit="10" stroke-linecap="round" stroke-linejoin="round"/>
<path d="M564.113 449.323C570.01 452.285 578.494 448.614 583.064 441.125C587.633 433.636 586.558 425.164 580.661 422.203C574.765 419.241 566.28 422.912 561.711 430.401C557.141 437.89 558.217 446.362 564.113 449.323Z" fill="#34505B" stroke="#34505B" stroke-width="4.65234" stroke-miterlimit="10" stroke-linecap="round" stroke-linejoin="round"/>
</g>
<g opacity="0.6">
<path d="M295.41 293.953C295.622 293.528 295.805 293.166 295.946 292.889L302.812 292.149L313.599 300.04L316.61 312.252L307.775 321.035C307.581 320.962 307.354 320.877 307.1 320.782C306.242 320.461 305.083 320.028 303.879 319.585C301.644 318.761 299.145 317.856 298.215 317.59C298.155 317.534 298.066 317.437 297.949 317.29C297.698 316.973 297.386 316.509 297.029 315.922C296.318 314.753 295.484 313.191 294.67 311.561C293.857 309.934 293.073 308.259 292.463 306.873C291.838 305.452 291.433 304.42 291.333 304.032C291.334 304.035 291.334 304.033 291.334 304.026C291.334 303.988 291.331 303.815 291.414 303.435C291.502 303.026 291.66 302.503 291.875 301.893C292.306 300.674 292.932 299.204 293.585 297.77C294.237 296.341 294.905 294.969 295.41 293.953ZM298.269 317.636C298.269 317.636 298.265 317.634 298.257 317.628C298.265 317.633 298.269 317.636 298.269 317.636Z" fill="#34505B" stroke="#34505B" stroke-width="2.32617"/>
<path d="M329.168 287.517L324.002 276.452L328.051 266.559L339.875 261.858L345.78 273.213L343.966 284.945L337.649 289.683L329.168 287.517Z" fill="#34505B" stroke="#34505B" stroke-width="2.32617"/>
<path d="M387.092 272.317C387.168 272.546 387.229 272.739 387.274 272.881L384.728 283.65L379.283 290.638L369.698 287.873L367.14 281.917L365.613 272.887L376.054 265.709L376.808 265.901L379.771 266.657C381.929 267.208 384.255 267.801 385.035 268C385.051 268.013 385.078 268.036 385.115 268.074C385.223 268.185 385.357 268.361 385.511 268.609C385.817 269.104 386.126 269.764 386.408 270.453C386.686 271.135 386.923 271.81 387.092 272.317Z" fill="#34505B" stroke="#34505B" stroke-width="2.32617"/>
<path d="M399.649 300.153C399.688 300.011 399.721 299.893 399.746 299.802L407.476 289.45L415.618 291.845L420.096 300.218L414.196 313.403L405.348 320.24C405.154 320.094 404.926 319.922 404.673 319.729C403.831 319.092 402.703 318.229 401.554 317.327C400.403 316.424 399.239 315.489 398.322 314.705C397.862 314.312 397.475 313.965 397.186 313.685C397.041 313.544 396.929 313.428 396.848 313.337C396.826 313.312 396.809 313.292 396.795 313.275C396.788 313.178 396.788 313.031 396.802 312.823C396.83 312.398 396.907 311.823 397.026 311.131C397.264 309.754 397.65 308.016 398.064 306.297C398.476 304.583 398.911 302.905 399.244 301.655C399.41 301.031 399.551 300.514 399.649 300.153ZM396.804 313.352C396.804 313.352 396.803 313.349 396.802 313.344C396.803 313.349 396.804 313.351 396.804 313.352Z" fill="#34505B" stroke="#34505B" stroke-width="2.32617"/>
<path d="M325.622 340.535L325.456 340.747L316.14 352.614L314.538 365.973L323.245 376.75L338.331 378.536L350.72 370.75L351.353 370.352L351.97 370.696L372.064 381.889C372.15 381.869 372.247 381.845 372.355 381.819C372.836 381.701 373.524 381.532 374.349 381.326C376.002 380.914 378.202 380.353 380.399 379.758C382.601 379.163 384.78 378.539 386.399 378C387.215 377.729 387.85 377.491 388.267 377.3C388.318 377.277 388.363 377.256 388.401 377.237C388.414 377.196 388.428 377.155 388.442 377.115C388.516 376.902 388.618 376.648 388.737 376.37C388.976 375.811 389.313 375.089 389.709 374.27C390.502 372.63 391.558 370.554 392.61 368.521C393.663 366.486 394.716 364.487 395.505 362.996C395.9 362.251 396.229 361.633 396.459 361.2C396.498 361.128 396.534 361.061 396.566 360.999C396.532 360.918 396.493 360.826 396.45 360.726C396.248 360.251 395.955 359.572 395.592 358.757C394.866 357.124 393.865 354.95 392.759 352.775C391.65 350.593 390.451 348.443 389.333 346.841C388.772 346.037 388.257 345.408 387.808 344.987C387.366 344.574 387.132 344.498 387.097 344.487C387.093 344.486 387.091 344.485 387.093 344.485L385.973 344.437L325.622 340.535ZM325.622 340.535L325.682 340.28L329.066 325.828L329.317 325.569C329.627 325.248 330.072 324.788 330.607 324.233C331.679 323.123 333.114 321.634 334.572 320.116C336.029 318.598 337.51 317.049 338.671 315.822C339.542 314.902 340.283 314.111 340.678 313.663L351.241 309.47M325.622 340.535L351.241 309.47M386.037 343.356L386.037 343.357L386.037 343.356ZM386.037 343.356L386.037 343.355L386.037 343.348L386.039 343.312C386.041 343.279 386.043 343.228 386.046 343.161C386.051 343.025 386.057 342.822 386.061 342.56C386.068 342.035 386.065 341.271 386.024 340.331C385.942 338.447 385.707 335.866 385.1 333.073C383.875 327.444 381.186 321.174 375.434 317.83C369.407 314.327 363.272 312.224 358.638 310.997C356.323 310.384 354.388 309.992 353.037 309.753C352.361 309.634 351.832 309.553 351.474 309.502C351.386 309.489 351.308 309.479 351.241 309.47M386.037 343.356L351.241 309.47M388.614 377.119C388.614 377.119 388.613 377.12 388.613 377.12C388.618 377.116 388.619 377.116 388.614 377.119Z" fill="#34505B" stroke="#34505B" stroke-width="2.32617"/>
<path d="M386.569 343.481C386.691 342.567 386.789 341.645 386.827 340.708C387.527 323.66 373.877 309.36 356.34 308.767C338.802 308.175 324.018 321.514 323.318 338.562C323.28 339.5 323.302 340.425 323.349 341.345C316.824 344.674 312.203 351.128 311.889 358.783C311.423 370.148 320.522 379.681 332.214 380.076C340.089 380.342 352.841 370.469 353.806 370.502C354.771 370.535 366.679 381.24 374.554 381.506C386.246 381.901 396.101 373.008 396.568 361.643C396.882 353.989 392.803 347.241 386.569 343.481Z" fill="#34505B" stroke="#34505B" stroke-width="4.65234" stroke-miterlimit="10" stroke-linecap="round" stroke-linejoin="round"/>
<path d="M337.857 291.551C344.573 291.032 349.367 283.697 348.565 275.167C347.764 266.638 341.67 260.144 334.955 260.664C328.239 261.183 323.445 268.519 324.246 277.048C325.048 285.578 331.141 292.071 337.857 291.551Z" fill="#34505B" stroke="#34505B" stroke-width="4.65234" stroke-miterlimit="10" stroke-linecap="round" stroke-linejoin="round"/>
<path d="M308.724 321.261C315.142 319.395 318.01 311.274 315.13 303.122C312.25 294.971 304.712 289.876 298.294 291.742C291.876 293.609 289.008 301.73 291.888 309.881C294.768 318.033 302.306 323.128 308.724 321.261Z" fill="#34505B" stroke="#34505B" stroke-width="4.65234" stroke-miterlimit="10" stroke-linecap="round" stroke-linejoin="round"/>
<path d="M419.383 309.207C422.696 301.192 420.267 292.954 413.956 290.807C407.646 288.659 399.844 293.416 396.53 301.431C393.217 309.446 395.646 317.684 401.957 319.832C408.268 321.979 416.069 317.222 419.383 309.207Z" fill="#34505B" stroke="#34505B" stroke-width="4.65234" stroke-miterlimit="10" stroke-linecap="round" stroke-linejoin="round"/>
<path d="M374.711 292.827C381.387 293.666 387.848 287.472 389.143 278.993C390.437 270.514 386.075 262.96 379.399 262.121C372.723 261.282 366.262 267.476 364.967 275.955C363.672 284.434 368.035 291.988 374.711 292.827Z" fill="#34505B" stroke="#34505B" stroke-width="4.65234" stroke-miterlimit="10" stroke-linecap="round" stroke-linejoin="round"/>
</g>
<g opacity="0.6">
<path d="M434.138 154.03C434.187 153.588 434.231 153.21 434.266 152.917L440.674 150.389L454.025 154.941L461.359 165.552L456.028 176.095C455.803 176.077 455.537 176.056 455.237 176.033C454.291 175.959 453.013 175.861 451.687 175.764C449.204 175.583 446.44 175.396 445.469 175.396C445.387 175.359 445.259 175.289 445.081 175.174C444.721 174.943 444.25 174.591 443.691 174.135C442.577 173.228 441.201 171.984 439.82 170.673C438.442 169.364 437.074 168.001 435.979 166.864C434.856 165.697 434.09 164.839 433.854 164.504C433.859 164.51 433.858 164.508 433.853 164.496C433.838 164.456 433.779 164.301 433.725 163.953C433.663 163.551 433.625 163.024 433.611 162.396C433.583 161.144 433.654 159.604 433.763 158.088C433.873 156.577 434.019 155.116 434.138 154.03ZM445.527 175.419C445.527 175.42 445.523 175.418 445.515 175.416C445.523 175.418 445.527 175.419 445.527 175.419Z" fill="#34505B" stroke="#34505B" stroke-width="2.32617"/>
<path d="M464.72 138.147L455.672 129.128L455.989 118.819L465.789 111.227L475.695 120.355L478.204 131.804L473.81 137.925L464.72 138.147Z" fill="#34505B" stroke="#34505B" stroke-width="2.32617"/>
<path d="M514.623 108.058C514.775 108.246 514.901 108.406 514.995 108.526L516.45 119.26L513.731 127.241L503.371 127.189L498.716 122.272L493.975 114.257L501.45 104.778L502.285 104.757L505.428 104.68C507.735 104.624 510.222 104.563 511.031 104.543C511.051 104.55 511.093 104.566 511.159 104.601C511.307 104.678 511.503 104.809 511.742 105.001C512.22 105.384 512.759 105.921 513.282 106.492C513.8 107.057 514.276 107.627 514.623 108.058Z" fill="#34505B" stroke="#34505B" stroke-width="2.32617"/>
<path d="M535.551 130.701C535.538 130.565 535.527 130.452 535.519 130.362L539.254 118.573L548.127 118.657L555.539 125.34L554.618 139.263L548.495 148.075C548.239 147.985 547.933 147.876 547.588 147.753C546.537 147.377 545.124 146.866 543.677 146.324C542.227 145.781 540.752 145.211 539.573 144.717C538.982 144.47 538.477 144.246 538.092 144.059C537.899 143.965 537.747 143.885 537.633 143.82C537.602 143.802 537.576 143.787 537.556 143.774C537.516 143.688 537.465 143.555 537.405 143.363C537.278 142.96 537.144 142.402 537.007 141.72C536.736 140.364 536.477 138.628 536.252 136.901C536.027 135.179 535.839 133.486 535.706 132.221C535.639 131.59 535.587 131.066 535.551 130.701ZM537.593 143.847C537.593 143.847 537.592 143.844 537.589 143.839C537.592 143.844 537.593 143.847 537.593 143.847Z" fill="#34505B" stroke="#34505B" stroke-width="2.32617"/>
<path d="M478.364 189.755L478.454 189.494L478.416 189.219L476.43 174.817L476.568 174.528C476.752 174.145 477.014 173.596 477.329 172.935C477.96 171.613 478.806 169.838 479.662 168.031C480.517 166.224 481.385 164.382 482.06 162.925C482.397 162.198 482.689 161.563 482.907 161.075C483.023 160.815 483.129 160.574 483.211 160.378L491.901 153.649C491.973 153.639 492.06 153.627 492.159 153.614C492.524 153.567 493.066 153.502 493.763 153.435C495.158 153.301 497.173 153.156 499.636 153.117C504.565 153.039 511.266 153.386 518.374 155.073C525.173 156.687 530.054 161.858 533.277 166.793C534.879 169.244 536.044 171.596 536.807 173.335C537.189 174.204 537.469 174.917 537.652 175.409C537.744 175.655 537.812 175.846 537.856 175.974C537.878 176.038 537.894 176.085 537.905 176.116L537.916 176.15L537.918 176.157L537.918 176.158L537.918 176.158L537.918 176.158L538.249 177.186L539.295 176.947C539.295 176.947 539.361 176.937 539.524 176.974C539.699 177.013 539.931 177.094 540.226 177.232C540.817 177.509 541.546 177.963 542.381 178.568C544.045 179.772 545.986 181.469 547.851 183.218C549.711 184.962 551.47 186.732 552.765 188.069C553.413 188.737 553.943 189.295 554.311 189.686C554.381 189.76 554.446 189.829 554.504 189.891C554.496 189.946 554.488 190.006 554.479 190.069C554.413 190.535 554.32 191.201 554.21 192.003C553.99 193.608 553.7 195.759 553.424 197.944C553.147 200.126 552.882 202.35 552.712 204.097C552.627 204.969 552.565 205.736 552.537 206.325C552.523 206.618 552.517 206.885 552.523 207.107C552.524 207.138 552.525 207.169 552.527 207.201C552.499 207.226 552.468 207.254 552.433 207.284C552.099 207.574 551.57 207.965 550.88 208.436C549.511 209.369 547.632 210.53 545.721 211.671C543.814 212.81 541.892 213.917 540.445 214.741C539.723 215.153 539.119 215.493 538.697 215.73C538.591 215.789 538.497 215.842 538.415 215.888L514.894 210.718L514.219 210.569L513.772 211.087L504.628 221.665L489.344 223.995L476.992 216.197L473.69 203.309L478.364 189.755ZM552.702 207.023C552.702 207.024 552.701 207.024 552.701 207.025C552.704 207.02 552.705 207.019 552.702 207.023Z" fill="#34505B" stroke="#34505B" stroke-width="2.32617"/>
<path d="M538.163 175.633C537.969 174.73 537.749 173.826 537.468 172.923C532.349 156.507 514.51 146.714 497.623 151.048C480.736 155.383 471.196 172.203 476.315 188.619C476.597 189.522 476.932 190.396 477.288 191.258C472.21 196.248 470.003 203.679 472.302 211.049C475.714 221.993 487.607 228.522 498.865 225.632C506.447 223.686 515.23 210.731 516.16 210.493C517.089 210.254 532.051 217.114 539.633 215.168C550.892 212.278 557.251 201.065 553.839 190.121C551.54 182.751 545.37 177.47 538.163 175.633Z" fill="#34505B" stroke="#34505B" stroke-width="4.65234" stroke-miterlimit="10" stroke-linecap="round" stroke-linejoin="round"/>
<path d="M474.196 139.83C480.41 137.461 482.482 129.142 478.826 121.251C475.169 113.36 467.168 108.884 460.955 111.253C454.741 113.623 452.669 121.941 456.326 129.833C459.982 137.724 467.983 142.2 474.196 139.83Z" fill="#34505B" stroke="#34505B" stroke-width="4.65234" stroke-miterlimit="10" stroke-linecap="round" stroke-linejoin="round"/>
<path d="M456.558 176.234C462.031 172.666 462.004 164.138 456.499 157.187C450.993 150.236 442.092 147.493 436.619 151.061C431.146 154.63 431.173 163.158 436.679 170.109C442.185 177.06 451.085 179.802 456.558 176.234Z" fill="#34505B" stroke="#34505B" stroke-width="4.65234" stroke-miterlimit="10" stroke-linecap="round" stroke-linejoin="round"/>
<path d="M557.754 133.86C558.187 125.309 553.08 118.149 546.347 117.868C539.615 117.588 533.806 124.292 533.372 132.843C532.939 141.395 538.046 148.554 544.779 148.835C551.512 149.115 557.321 142.411 557.754 133.86Z" fill="#34505B" stroke="#34505B" stroke-width="4.65234" stroke-miterlimit="10" stroke-linecap="round" stroke-linejoin="round"/>
<path d="M509.693 130.751C516.33 129.684 520.376 121.987 518.731 113.558C517.085 105.129 510.372 99.1607 503.735 100.227C497.099 101.293 493.053 108.991 494.698 117.42C496.343 125.848 503.057 131.817 509.693 130.751Z" fill="#34505B" stroke="#34505B" stroke-width="4.65234" stroke-miterlimit="10" stroke-linecap="round" stroke-linejoin="round"/>
</g>
<g opacity="0.6">
<path d="M204.131 111.949C203.945 111.508 203.789 111.132 203.672 110.845L208.03 106.1L222.024 105.101L233.862 111.992L234.423 123.733C234.23 123.799 234.006 123.876 233.757 123.961C232.884 124.259 231.707 124.664 230.487 125.088C228.234 125.872 225.723 126.761 224.831 127.148C224.744 127.144 224.607 127.129 224.412 127.097C223.981 127.025 223.391 126.886 222.669 126.686C221.233 126.288 219.398 125.684 217.523 125.02C215.652 124.358 213.764 123.642 212.228 123.027C210.655 122.396 209.547 121.907 209.167 121.69C209.169 121.691 209.168 121.69 209.164 121.687C209.138 121.664 208.994 121.541 208.741 121.202C208.48 120.852 208.18 120.38 207.852 119.809C207.199 118.671 206.49 117.232 205.829 115.804C205.17 114.381 204.568 112.988 204.131 111.949ZM224.912 127.148C224.912 127.148 224.907 127.148 224.895 127.149C224.906 127.147 224.912 127.147 224.912 127.148Z" fill="#34505B" stroke="#34505B" stroke-width="2.32617"/>
<path d="M224.106 85.9983L211.636 81.2692L206.736 71.6662L211.557 61.0329L224.766 65.5061L232.737 75.0385L231.912 82.331L224.106 85.9983Z" fill="#34505B" stroke="#34505B" stroke-width="2.32617"/>
<path d="M253.708 38.8774C253.948 38.9962 254.147 39.0979 254.293 39.1728L260.972 48.4598L262.562 56.8234L253.491 60.7376L246.946 58.0554L238.687 52.5214L240.558 40.9402L241.24 40.6199L243.975 39.3355C245.96 38.4033 248.098 37.3988 248.826 37.0569C248.848 37.0564 248.882 37.0568 248.932 37.0606C249.095 37.0733 249.33 37.1161 249.637 37.199C250.249 37.3641 250.994 37.646 251.741 37.9655C252.481 38.2815 253.186 38.6182 253.708 38.8774Z" fill="#34505B" stroke="#34505B" stroke-width="2.32617"/>
<path d="M284.042 50.7252C283.956 50.5953 283.884 50.4883 283.83 50.4072L281.251 38.2181L288.999 34.9152L298.846 38.1401L304.992 51.2404L303.989 61.5888C303.74 61.6037 303.449 61.6207 303.126 61.6391C302.014 61.7023 300.519 61.7817 298.977 61.8465C297.433 61.9115 295.854 61.9615 294.573 61.9669C293.931 61.9696 293.378 61.961 292.949 61.939C292.734 61.928 292.562 61.9142 292.432 61.8989C292.396 61.8947 292.366 61.8907 292.343 61.8871C292.26 61.8214 292.14 61.713 291.982 61.552C291.666 61.229 291.267 60.7689 290.808 60.2001C289.892 59.067 288.8 57.5848 287.743 56.0998C286.688 54.6184 285.68 53.1496 284.934 52.0501C284.562 51.5006 284.255 51.0441 284.042 50.7252ZM292.408 61.9347C292.408 61.9348 292.406 61.9336 292.402 61.931C292.406 61.9333 292.408 61.9346 292.408 61.9347Z" fill="#34505B" stroke="#34505B" stroke-width="2.32617"/>
<path d="M261.587 126.05L261.633 126.294L264.285 140.527L273.697 151.085L288.48 153.428L300.75 145.433L303.538 132.244L303.684 131.557L304.425 131.418L327.743 127.054C327.75 127.043 327.758 127.031 327.766 127.019C327.804 126.963 327.844 126.902 327.888 126.837C328.143 126.457 328.506 125.912 328.938 125.257C329.804 123.945 330.949 122.19 332.064 120.412C333.183 118.63 334.262 116.843 335.004 115.462C335.378 114.766 335.649 114.205 335.799 113.813C335.818 113.76 335.835 113.715 335.848 113.675C335.822 113.633 335.797 113.59 335.772 113.548C335.659 113.352 335.532 113.109 335.399 112.837C335.13 112.291 334.803 111.568 334.443 110.74C333.72 109.079 332.843 106.945 331.996 104.844C331.149 102.741 330.33 100.664 329.722 99.112C329.418 98.3361 329.167 97.6914 328.992 97.2407C328.96 97.1576 328.93 97.0811 328.904 97.0116C328.811 96.973 328.706 96.9295 328.589 96.8815C328.068 96.6667 327.321 96.3617 326.415 96.0017C324.602 95.2812 322.162 94.3433 319.647 93.4691C317.123 92.5919 314.561 91.7921 312.49 91.335C311.45 91.1056 310.583 90.9737 309.928 90.9494C309.324 90.927 309.095 91.0055 309.05 91.021C309.041 91.0241 309.039 91.0246 309.044 91.021L308.177 91.6924L261.587 126.05ZM261.587 126.05L261.436 125.84L252.456 113.412L252.432 113.062C252.402 112.64 252.359 112.038 252.308 111.311C252.204 109.859 252.064 107.91 251.916 105.927C251.769 103.945 251.615 101.926 251.484 100.334C251.385 99.1344 251.294 98.1105 251.225 97.5506L255.532 88.0542C255.586 88.0206 255.647 87.9822 255.717 87.9391C256.015 87.7553 256.46 87.4875 257.042 87.1572C258.204 86.4964 259.909 85.5866 262.061 84.6002C266.371 82.6254 272.453 80.354 279.564 79.1492C286.341 78.0008 293.231 80.8242 298.566 84.0994C301.212 85.7235 303.421 87.4257 304.969 88.7228C305.742 89.3705 306.348 89.9152 306.758 90.2956C306.963 90.4857 307.119 90.6347 307.222 90.7348C307.274 90.7849 307.312 90.8227 307.337 90.8473L307.364 90.8743L307.37 90.8801L307.371 90.8807L307.371 90.8811L261.587 126.05ZM335.906 113.468C335.906 113.468 335.906 113.469 335.906 113.469L335.906 113.468Z" fill="#34505B" stroke="#34505B" stroke-width="2.32617"/>
<path d="M307.941 90.2262C307.329 89.4921 306.694 88.7676 306.004 88.0684C293.456 75.3628 272.688 73.6762 259.618 84.3012C246.547 94.9263 246.123 113.839 258.671 126.545C259.361 127.244 260.085 127.895 260.823 128.528C258.677 135.035 260.294 142.59 265.928 148.294C274.293 156.765 288.138 157.889 296.852 150.806C302.721 146.035 304.337 130.896 305.057 130.312C305.776 129.727 322.539 129.925 328.408 125.155C337.121 118.071 337.404 105.463 329.039 96.9922C323.405 91.2877 315.305 89.0031 307.941 90.2262Z" fill="#34505B" stroke="#34505B" stroke-width="4.65234" stroke-miterlimit="10" stroke-linecap="round" stroke-linejoin="round"/>
<path d="M233.141 83.5624C237.575 78.9569 235.408 70.6583 228.302 65.0271C221.195 59.3958 211.84 58.5642 207.406 63.1697C202.973 67.7752 205.139 76.0737 212.246 81.705C219.352 87.3363 228.707 88.1678 233.141 83.5624Z" fill="#34505B" stroke="#34505B" stroke-width="4.65234" stroke-miterlimit="10" stroke-linecap="round" stroke-linejoin="round"/>
<path d="M234.926 123.295C238.114 117.908 233.96 110.258 225.648 106.208C217.336 102.159 208.012 103.243 204.824 108.63C201.636 114.017 205.789 121.667 214.102 125.717C222.414 129.766 231.737 128.682 234.926 123.295Z" fill="#34505B" stroke="#34505B" stroke-width="4.65234" stroke-miterlimit="10" stroke-linecap="round" stroke-linejoin="round"/>
<path d="M305.31 44.8915C301.558 37.0373 293.503 32.6414 287.319 35.0731C281.135 37.5047 279.164 45.8431 282.916 53.6973C286.668 61.5515 294.723 65.9473 300.907 63.5157C307.091 61.0841 309.062 52.7457 305.31 44.8915Z" fill="#34505B" stroke="#34505B" stroke-width="4.65234" stroke-miterlimit="10" stroke-linecap="round" stroke-linejoin="round"/>
<path d="M260.631 61.2563C266.077 57.653 265.984 49.1256 260.424 42.2097C254.864 35.2938 245.942 32.6083 240.497 36.2116C235.052 39.8148 235.145 48.3423 240.705 55.2582C246.265 62.1741 255.186 64.8595 260.631 61.2563Z" fill="#34505B" stroke="#34505B" stroke-width="4.65234" stroke-miterlimit="10" stroke-linecap="round" stroke-linejoin="round"/>
</g>
</g>
</svg>
