<svg width="89" height="89" viewBox="0 0 89 89" fill="none" xmlns="http://www.w3.org/2000/svg">
<path d="M83.4375 37.5469C83.4375 39.4722 82.8666 41.3542 81.797 42.955C80.7273 44.5558 79.207 45.8035 77.4283 46.5403C75.6496 47.277 73.6923 47.4698 71.804 47.0942C69.9158 46.7186 68.1813 45.7915 66.8199 44.4301C65.4585 43.0687 64.5314 41.3342 64.1558 39.446C63.7802 37.5577 63.973 35.6004 64.7097 33.8217C65.4465 32.043 66.6942 30.5227 68.295 29.453C69.8958 28.3834 71.7779 27.8125 73.7031 27.8125C76.2848 27.8125 78.7608 28.8381 80.5864 30.6636C82.4119 32.4892 83.4375 34.9652 83.4375 37.5469ZM25.0313 37.5469C25.0313 35.6216 24.4603 33.7396 23.3907 32.1387C22.3211 30.5379 20.8008 29.2903 19.0221 28.5535C17.2433 27.8167 15.2861 27.6239 13.3978 27.9995C11.5095 28.3751 9.77501 29.3023 8.41364 30.6636C7.05226 32.025 6.12515 33.7595 5.74955 35.6478C5.37394 37.5361 5.56672 39.4933 6.30349 41.2721C7.04026 43.0508 8.28794 44.5711 9.88875 45.6407C11.4896 46.7103 13.3716 47.2813 15.2969 47.2813C17.8786 47.2813 20.3546 46.2557 22.1801 44.4301C24.0057 42.6046 25.0313 40.1286 25.0313 37.5469ZM31.9844 30.5938C33.9097 30.5938 35.7917 30.0228 37.3925 28.9532C38.9933 27.8836 40.241 26.3633 40.9778 24.5846C41.7145 22.8058 41.9073 20.8486 41.5317 18.9603C41.1561 17.072 40.229 15.3375 38.8676 13.9761C37.5062 12.6148 35.7717 11.6877 33.8835 11.312C31.9952 10.9364 30.0379 11.1292 28.2592 11.866C26.4805 12.6028 24.9602 13.8504 23.8905 15.4513C22.8209 17.0521 22.25 18.9341 22.25 20.8594C22.25 23.4411 23.2756 25.9171 25.1011 27.7426C26.9267 29.5682 29.4027 30.5938 31.9844 30.5938ZM57.0156 30.5938C58.9409 30.5938 60.823 30.0228 62.4238 28.9532C64.0246 27.8836 65.2722 26.3633 66.009 24.5846C66.7458 22.8058 66.9386 20.8486 66.563 18.9603C66.1874 17.072 65.2603 15.3375 63.8989 13.9761C62.5375 12.6148 60.803 11.6877 58.9147 11.312C57.0264 10.9364 55.0692 11.1292 53.2904 11.866C51.5117 12.6028 49.9914 13.8504 48.9218 15.4513C47.8522 17.0521 47.2813 18.9341 47.2813 20.8594C47.2813 23.4411 48.3068 25.9171 50.1324 27.7426C51.9579 29.5682 54.4339 30.5938 57.0156 30.5938ZM65.0534 51.7521C63.6407 50.9728 62.3955 49.9225 61.3892 48.6614C60.3828 47.4003 59.635 45.9531 59.1885 44.4027C58.2637 41.2225 56.3318 38.4283 53.6831 36.4401C51.0344 34.4519 47.8119 33.377 44.5 33.377C41.1881 33.377 37.9656 34.4519 35.3169 36.4401C32.6682 38.4283 30.7363 41.2225 29.8115 44.4027C28.9182 47.5224 26.824 50.1605 23.9883 51.7382C21.2679 53.2102 19.116 55.5471 17.8728 58.3793C16.6295 61.2115 16.366 64.3773 17.1239 67.3761C17.8818 70.3749 19.6178 73.0354 22.0573 74.9369C24.4969 76.8383 27.5007 77.8722 30.5938 77.875C32.4473 77.8801 34.2827 77.51 35.9894 76.7868C41.4305 74.5433 47.5382 74.5433 52.9793 76.7868C56.275 78.2202 59.9975 78.322 63.3665 77.0709C66.7356 75.8199 69.4895 73.3131 71.0508 70.0762C72.6122 66.8392 72.8598 63.1235 71.7417 59.7081C70.6236 56.2926 68.2267 53.4426 65.0534 51.7556V51.7521Z" fill="black"/>
</svg>
