<svg width="812" height="880" viewBox="0 0 812 880" fill="none" xmlns="http://www.w3.org/2000/svg">
<g opacity="0.38">
<path d="M61.8918 243.771C81.5154 240.171 91.3697 219.438 83.9031 197.461C76.4365 175.485 54.4765 160.588 34.8528 164.188C21.7011 166.601 12.9381 176.71 10.8358 189.73L6.08177 190.602C-23.3528 196.002 -38.1351 227.103 -26.9352 260.067L33.9024 439.129C24.0913 440.929 19.0868 451.331 23.695 462.11C45.0708 512.11 81.1658 556.259 125.953 586.641C158.796 608.919 194.564 622.609 229.799 626.871L246.137 674.959C254.968 700.951 277.314 720.34 300.801 724.733C328.377 803.53 407.402 856.733 478.064 843.769C549.199 830.719 584.922 755.56 557.855 675.896L530.816 596.313C516.816 555.107 535.294 516.232 572.087 509.482C608.881 502.732 650.057 530.663 664.057 571.869L680.42 620.03C662.503 632.021 655.185 656.852 664.015 682.84C675.215 715.805 708.154 738.15 737.59 732.75C767.025 727.349 781.807 696.25 770.607 663.285C761.777 637.297 739.435 617.908 715.951 613.512L699.588 565.35C678.121 502.169 614.984 459.34 558.568 469.69C502.152 480.04 473.819 539.65 495.285 602.831L522.324 682.414C541.924 740.102 516.055 794.528 464.545 803.978C413.503 813.342 356.438 775.031 336.333 718.208C354.243 706.214 361.557 681.388 352.729 655.404L336.391 607.316C364.764 591.384 387.58 566.946 402.318 535.939C422.416 493.654 426.035 442.219 412.92 390.704C410.094 379.597 399.022 372.145 389.21 373.945L328.373 194.883C317.173 161.919 284.233 139.573 254.797 144.974L250.043 145.846C239.859 135.079 225.659 129.184 212.507 131.596C192.883 135.196 183.029 155.93 190.496 177.906C197.962 199.882 219.922 214.779 239.546 211.179C252.698 208.767 261.461 198.658 263.563 185.637L268.317 184.765C278.129 182.965 289.109 190.414 292.842 201.402L353.68 380.463L357.401 379.781C347.59 381.581 342.803 391.968 345.145 403.099C351.752 434.515 348.852 465.533 336.583 491.348C321.702 522.654 294.26 543.743 260.291 549.975C226.323 556.207 188.61 547.071 155.452 524.578C128.109 506.03 105.71 479.653 91.4467 449.642C86.3926 439.008 75.5243 431.493 65.7126 433.293L69.4332 432.611L8.59558 253.549C4.86231 242.561 9.78977 232.194 19.6012 230.394L24.3553 229.522C34.5395 240.288 48.7401 246.184 61.8918 243.771Z" fill="#34505B"/>
</g>
</svg>
